<?xml version="1.0" standalone="no"?>
<!DOCTYPE svg PUBLIC "-//W3C//DTD SVG 20010904//EN"
 "http://www.w3.org/TR/2001/REC-SVG-20010904/DTD/svg10.dtd">
<svg version="1.0" xmlns="http://www.w3.org/2000/svg"
 width="740.000000pt" height="740.000000pt" viewBox="0 0 740.000000 740.000000"
 preserveAspectRatio="xMidYMid meet">

<g transform="translate(0.000000,740.000000) scale(0.100000,-0.100000)"
fill="#000000" stroke="none">
<path d="M6525 6956 c-16 -7 -48 -33 -70 -58 -83 -94 -120 -141 -123 -157 -2
-9 -12 -25 -22 -36 -17 -18 -73 -100 -237 -342 -63 -93 -67 -94 -102 -13 -12
28 -25 50 -29 50 -5 0 -39 -19 -77 -42 l-69 -41 -21 29 c-71 101 -141 137
-223 115 -26 -7 -58 -22 -71 -34 -49 -46 -65 -133 -37 -202 14 -34 14 -35 -13
-54 l-28 -20 -34 50 c-46 67 -109 109 -166 109 -57 0 -103 -20 -136 -59 -36
-43 -44 -93 -25 -163 15 -58 15 -58 -10 -74 -23 -15 -26 -15 -34 -1 -25 46
-79 105 -113 125 -32 18 -51 22 -93 19 -59 -4 -94 -25 -129 -77 -27 -38 -30
-112 -9 -172 13 -37 13 -38 -9 -38 -28 0 -67 -36 -94 -86 -12 -22 -26 -46 -33
-55 -9 -13 -7 -26 9 -60 45 -95 67 -149 115 -289 54 -154 76 -203 138 -306 22
-35 40 -66 40 -68 0 -10 -259 -14 -395 -6 -88 5 -259 12 -380 15 -121 3 -355
10 -520 15 -165 4 -520 6 -788 4 -397 -3 -494 -7 -523 -19 -19 -8 -36 -20 -38
-27 -14 -50 -39 -308 -47 -488 -5 -118 -13 -249 -19 -290 -9 -74 -25 -416 -35
-780 -3 -102 -8 -230 -11 -285 -10 -157 25 -592 51 -631 21 -33 88 -44 262
-44 156 0 667 -25 711 -35 19 -5 22 -12 22 -59 0 -122 -32 -213 -105 -294 -83
-92 -200 -130 -361 -117 -198 16 -364 -66 -432 -213 -75 -164 22 -292 258
-342 132 -28 171 -48 204 -104 15 -25 29 -46 32 -46 11 0 -4 68 -21 94 -26 39
-81 64 -204 91 -60 13 -126 31 -147 40 -125 52 -164 146 -110 262 32 67 103
138 169 168 57 27 156 45 202 39 17 -3 74 -5 127 -7 53 -1 95 -3 93 -5 -10
-10 -133 -31 -215 -37 -140 -9 -222 -36 -275 -90 -62 -61 -82 -146 -51 -219
17 -42 65 -67 214 -112 109 -33 160 -59 190 -94 32 -38 45 -64 52 -100 l7 -40
-35 0 c-93 0 -153 -44 -251 -182 -72 -101 -181 -278 -187 -305 -8 -30 1 -65
24 -93 16 -19 32 -23 137 -31 66 -5 156 -7 200 -4 334 23 747 21 1740 -6 504
-14 707 -13 740 3 45 23 75 61 75 95 0 46 -19 84 -90 178 -33 44 -94 127 -134
185 -84 120 -98 133 -146 148 -22 7 -250 14 -610 19 -671 9 -676 9 -1101 -2
l-326 -8 -12 46 c-6 26 -25 62 -41 81 -17 19 -27 37 -22 40 5 3 96 1 203 -4
315 -16 1002 -30 1465 -30 373 0 433 2 438 15 3 8 8 55 12 105 l7 90 -124 122
c-122 121 -156 150 -294 249 l-70 51 -130 -4 -130 -3 0 75 0 75 85 17 c371 78
633 74 900 -13 80 -26 157 -67 165 -87 10 -26 -16 -42 -134 -79 -137 -43 -217
-81 -270 -128 -87 -79 -48 -176 99 -244 36 -16 151 -51 255 -76 135 -33 216
-59 282 -90 87 -41 132 -80 101 -89 -7 -2 -31 -9 -54 -15 -55 -15 -117 -61
-151 -113 -40 -60 -39 -141 2 -218 35 -65 131 -162 217 -219 192 -129 446
-108 525 43 35 67 -7 182 -122 332 -91 119 -143 150 -316 188 -18 4 -31 18
-44 46 -43 95 -114 128 -400 190 -163 35 -239 60 -299 97 -21 14 -35 20 -32
14 12 -19 89 -59 156 -81 36 -12 142 -41 235 -65 94 -24 191 -52 216 -63 41
-18 99 -71 99 -92 0 -5 3 -15 6 -24 12 -32 -13 -15 -29 20 -25 51 -124 95
-317 139 -278 63 -360 95 -423 164 -50 56 -50 91 1 139 47 45 173 104 277 130
133 34 159 50 148 93 -19 71 -415 179 -658 179 -92 0 -395 -36 -465 -55 -30
-8 -56 -15 -57 -15 -2 0 -3 6 -3 14 0 8 8 17 18 19 16 4 16 5 0 6 -16 1 -18
13 -18 95 l0 94 488 5 c291 2 513 9 552 15 36 7 86 14 113 17 29 4 58 15 75
30 25 22 27 29 27 102 0 43 -4 106 -8 141 -4 34 -4 62 0 62 4 0 36 -44 71 -98
74 -118 91 -135 128 -130 22 2 39 17 71 63 23 33 52 78 64 100 12 22 39 62 60
89 22 27 39 56 39 66 0 33 -79 86 -215 145 -49 21 -94 42 -99 46 -4 4 8 41 27
82 20 40 42 95 49 120 15 59 8 67 -84 91 -37 10 -71 23 -76 30 -4 6 -4 85 0
176 4 91 9 326 10 522 2 197 5 358 7 358 2 0 20 -14 41 -30 49 -39 104 -62
127 -53 10 3 34 20 53 38 63 56 380 259 545 350 88 48 198 109 245 135 47 26
112 62 145 79 33 17 91 50 129 73 67 42 70 45 82 97 6 30 12 82 13 116 l1 62
-120 128 c-65 70 -147 168 -182 217 -35 50 -94 132 -133 182 -38 50 -82 107
-97 127 l-27 36 48 79 c83 138 313 468 356 510 8 8 15 22 15 29 0 8 8 20 18
27 25 19 90 119 92 143 5 43 -1 63 -31 109 -48 71 -99 91 -164 62z m113 -22
c21 -15 32 -42 12 -29 -6 4 -18 1 -27 -7 -14 -11 -16 -11 -9 2 5 8 -6 0 -23
-17 -35 -36 -90 -45 -116 -19 -16 16 -6 28 55 65 42 25 77 27 108 5z m-84
-134 c19 -17 43 -49 55 -72 19 -38 19 -43 4 -72 -8 -17 -17 -33 -19 -35 -2 -2
-24 15 -49 38 -54 50 -116 80 -165 81 -29 1 -32 3 -20 13 9 7 26 27 39 45 20
29 27 32 71 32 41 0 55 -5 84 -30z m-186 -131 c-3 -22 0 -33 13 -39 12 -7 19
-6 22 3 3 6 6 0 6 -14 1 -22 -28 -73 -50 -89 -4 -3 -41 -59 -81 -125 -41 -66
-100 -156 -132 -200 -31 -44 -79 -113 -107 -153 l-50 -73 -25 26 c-20 22 -31
26 -55 21 -16 -3 -29 -2 -29 3 0 10 78 126 204 304 50 71 109 155 131 186 59
84 117 151 132 151 7 0 12 3 12 8 -2 13 1 22 7 22 4 0 4 -14 2 -31z m98 -106
c14 -9 21 -19 15 -22 -10 -7 -19 -38 -20 -74 -1 -10 -5 -16 -10 -12 -5 3 -13
0 -16 -5 -4 -7 -19 -8 -37 -5 -21 5 -28 4 -24 -4 4 -6 3 -11 -1 -11 -5 0 -18
-7 -29 -16 -16 -13 -16 -15 -2 -10 13 4 20 -2 24 -19 3 -14 10 -25 15 -25 5 0
-4 -17 -19 -39 -15 -21 -31 -36 -36 -33 -5 3 -7 1 -4 -4 3 -5 -19 -45 -48 -89
-30 -44 -54 -75 -54 -68 0 23 -52 25 -83 3 l-29 -22 13 24 c27 51 86 139 171
251 49 66 98 137 108 158 23 44 30 46 66 22z m-785 -152 c110 -69 129 -215 37
-269 -25 -15 -28 -15 -47 3 -14 12 -21 30 -21 57 0 53 -22 101 -58 127 -46 33
-58 25 -18 -13 32 -29 49 -76 29 -76 -5 0 -18 -3 -30 -6 -22 -6 -23 -3 -23 42
0 35 -3 45 -10 34 -5 -8 -10 -31 -10 -50 0 -65 -38 -80 -64 -26 -67 141 81
263 215 177z m285 -105 l26 -55 -61 -104 c-70 -120 -106 -227 -127 -381 -7
-48 -6 -49 17 -43 46 10 186 74 232 106 26 17 66 60 89 93 37 55 43 60 52 44
82 -137 178 -276 221 -318 53 -52 165 -187 165 -198 0 -4 -52 -4 -115 -2 -101
4 -115 3 -115 -12 0 -22 76 -223 100 -264 11 -18 20 -35 20 -36 0 -2 -48 -32
-107 -66 -60 -35 -151 -88 -203 -119 -52 -30 -171 -107 -265 -170 -93 -63
-207 -139 -252 -170 -46 -30 -81 -56 -79 -58 9 -10 81 31 296 171 337 219 649
399 676 389 6 -2 44 12 85 31 41 19 75 33 77 31 2 -1 -3 -18 -11 -37 -12 -28
-26 -39 -71 -57 -32 -14 -53 -28 -49 -34 3 -5 1 -7 -5 -3 -6 3 -27 -1 -46 -11
-20 -9 -32 -20 -26 -23 5 -3 -20 -24 -56 -46 -36 -21 -93 -56 -127 -76 -34
-21 -82 -49 -107 -63 -52 -30 -271 -168 -327 -206 -36 -25 -272 -176 -301
-193 -11 -6 -13 1 -11 30 4 63 -8 83 -64 108 -61 27 -205 119 -260 167 -47 40
-144 159 -192 233 -70 109 -205 404 -286 626 -28 74 -63 159 -80 187 -35 64
-36 73 -4 73 30 0 103 28 127 47 23 20 31 2 23 -51 -8 -54 12 -79 77 -96 37
-10 47 -9 77 6 61 33 88 105 57 149 -7 11 -16 34 -20 50 -7 31 -7 31 55 44 34
7 79 24 102 38 32 20 41 22 48 11 10 -16 10 -36 0 -63 -12 -29 -3 -44 40 -65
72 -37 138 -17 169 53 17 38 17 44 3 77 -38 88 -39 86 35 105 37 9 87 28 111
42 l44 26 -6 -55 c-6 -48 -4 -57 16 -75 108 -98 251 9 187 141 -27 57 -23 78
15 86 17 4 44 14 60 23 17 9 33 16 38 17 4 0 19 -24 33 -54z m-683 -51 c85
-50 122 -157 78 -228 -47 -76 -111 -64 -111 21 0 26 -7 60 -15 76 -19 36 -14
42 14 19 12 -10 25 -37 30 -63 8 -41 9 -42 10 -12 1 47 -24 91 -57 98 -15 3
-37 10 -50 15 -41 16 -40 10 1 -32 l42 -41 -24 -19 c-39 -31 -51 -25 -52 29 0
35 -3 42 -9 27 -5 -11 -9 -34 -9 -52 -1 -21 -8 -36 -20 -42 -24 -13 -36 0 -52
61 -35 128 102 216 224 143z m-397 -150 c52 -30 79 -67 96 -128 10 -40 9 -51
-7 -86 -23 -52 -59 -77 -90 -63 -18 8 -23 21 -27 70 -7 67 -28 106 -69 128
-40 20 -60 17 -24 -4 17 -10 37 -31 45 -46 13 -26 13 -29 -5 -42 -39 -29 -50
-17 -45 50 3 47 -17 20 -23 -30 -11 -105 -77 -63 -77 50 0 106 123 161 226
101z m1318 -20 c-4 -8 -8 -15 -10 -15 -2 0 -4 7 -4 15 0 8 4 15 10 15 5 0 7
-7 4 -15z m-145 -85 c-13 -22 -26 -40 -31 -40 -4 0 4 22 20 49 15 28 28 46 30
41 2 -5 -7 -28 -19 -50z m-104 -20 c9 -18 13 -40 9 -52 -6 -20 -4 -20 34 -14
35 5 43 3 57 -16 14 -21 14 -24 -7 -40 -13 -10 -46 -31 -74 -46 l-51 -28 -28
23 c-15 13 -34 22 -42 19 -12 -5 -14 1 -9 31 3 21 8 60 12 86 5 37 12 51 28
57 38 16 55 11 71 -20z m-1282 -227 c19 -43 42 -100 50 -128 123 -403 171
-496 430 -838 69 -91 189 -191 295 -243 l72 -36 0 -49 c0 -27 -3 -49 -7 -49
-13 1 -87 52 -168 118 -44 34 -81 58 -85 53 -15 -25 -178 143 -286 294 -92
129 -84 129 14 0 33 -44 95 -114 138 -155 92 -88 92 -86 -1 16 -99 108 -198
243 -285 388 -41 69 -76 123 -79 121 -2 -2 31 -64 73 -136 42 -73 70 -126 62
-119 -9 7 -30 38 -48 69 -17 31 -48 81 -69 111 -32 48 -129 255 -129 276 0 8
-79 186 -106 238 -13 26 -13 31 0 45 9 8 17 13 18 10 2 -2 23 -62 47 -134 40
-117 118 -291 128 -282 2 2 -11 35 -28 73 -17 38 -49 121 -70 184 -21 63 -43
129 -50 146 -11 28 -10 36 10 68 13 20 26 36 30 36 5 0 24 -35 44 -77z m1173
31 c-4 -9 -9 -15 -11 -12 -3 3 -3 13 1 22 4 9 9 15 11 12 3 -3 3 -13 -1 -22z
m721 -363 c21 -1 20 -5 -27 -103 -28 -56 -50 -107 -50 -115 0 -7 -3 -13 -7
-12 -9 0 -114 218 -113 234 0 7 31 8 88 3 48 -3 97 -7 109 -7z m153 -135 c-13
-12 -225 -135 -228 -132 -4 4 34 83 71 146 15 25 27 57 27 71 0 14 3 29 7 33
4 4 34 -20 67 -53 33 -33 58 -62 56 -65z m-10 -63 c-1 -21 -23 -35 -110 -69
-24 -10 -29 -10 -17 -1 115 78 127 85 127 70z m-1898 -258 c43 -6 50 -11 85
-63 21 -30 48 -67 61 -81 22 -24 22 -25 4 -32 -45 -17 -129 18 -130 55 0 5 -6
13 -14 18 -10 7 -10 11 4 20 15 11 14 13 -9 25 -14 7 -38 13 -54 13 -27 0 -29
-3 -30 -42 0 -24 -3 -37 -6 -30 -2 6 -9 12 -15 12 -5 0 -23 9 -38 20 -20 14
-31 17 -36 9 -4 -7 -21 -9 -43 -5 -29 4 -39 1 -56 -18 -18 -22 -26 -24 -78
-19 -54 5 -58 7 -64 34 -4 23 -11 29 -32 29 -14 1 -51 3 -81 6 -106 11 -494 3
-622 -12 -32 -4 -48 -11 -48 -20 0 -16 -36 -19 -45 -3 -5 7 -22 8 -49 3 -22
-4 -66 -7 -96 -5 -30 1 -84 -2 -121 -8 -39 -5 -169 -6 -325 -1 -269 8 -553 2
-519 -11 11 -4 92 -5 180 -2 192 7 541 -6 480 -18 -66 -13 -692 -11 -736 2
-47 15 -66 2 -71 -44 -2 -25 -8 -33 -26 -35 -12 -2 -28 -12 -35 -23 -6 -10
-17 -19 -24 -19 -6 0 -14 -10 -16 -22 -2 -13 -5 20 -7 72 -3 102 -17 86 -19
-22 0 -31 -5 -60 -11 -63 -5 -3 -10 -3 -10 2 0 27 31 267 35 271 16 17 2505
23 2617 7z m-1078 -80 c-4 -8 -12 -15 -19 -15 -7 0 -28 -3 -46 -6 -26 -4 -30
-3 -19 5 8 6 26 11 40 12 l25 1 -25 8 c-22 7 -21 8 12 9 29 1 36 -2 32 -14z
m-204 -25 c0 -5 -5 -10 -11 -10 -5 0 -7 5 -4 10 3 6 8 10 11 10 2 0 4 -4 4
-10z m293 -27 c-7 -2 -19 -2 -25 0 -7 3 -2 5 12 5 14 0 19 -2 13 -5z m120 0
c-7 -2 -21 -2 -30 0 -10 3 -4 5 12 5 17 0 24 -2 18 -5z m95 0 c-10 -2 -26 -2
-35 0 -10 3 -2 5 17 5 19 0 27 -2 18 -5z m-1731 -140 c-3 -10 -5 -4 -5 12 0
17 2 24 5 18 2 -7 2 -21 0 -30z m2687 -26 c99 6 101 5 113 -18 24 -46 45 -389
23 -389 -5 0 -10 13 -10 29 0 15 -8 39 -19 52 -10 13 -22 35 -26 49 -16 50
-30 62 -87 65 -29 1 -68 -3 -85 -11 -28 -11 -35 -11 -48 2 -8 9 -15 29 -15 45
0 37 -20 46 -54 24 -14 -9 -31 -13 -37 -9 -18 11 -59 13 -59 3 0 -16 -28 -10
-34 7 -9 23 2 54 19 54 9 0 12 6 8 17 -5 14 -1 15 33 10 21 -4 50 -9 64 -12
20 -5 27 -1 36 18 7 16 8 31 2 41 -8 14 -6 16 16 10 19 -4 28 -2 32 11 5 11
10 13 17 6 6 -6 49 -8 111 -4z m-1354 -32 c-8 -10 -31 -15 -70 -15 -44 0 -57
3 -57 15 0 12 15 15 70 15 61 0 68 -2 57 -15z m-171 -11 c2 -2 -22 -4 -55 -4
-41 0 -54 3 -44 10 13 8 88 3 99 -6z m514 -1 c-7 -2 -19 -2 -25 0 -7 3 -2 5
12 5 14 0 19 -2 13 -5z m622 -31 c-3 -3 -11 0 -18 7 -9 10 -8 11 6 5 10 -3 15
-9 12 -12z m-870 -11 c700 -8 849 -12 864 -27 2 -2 4 -20 5 -41 l1 -38 -315 0
c-173 1 -551 5 -840 9 -501 9 -620 6 -620 -14 0 -5 123 -7 293 -4 160 3 344 6
407 7 63 1 194 -5 290 -13 107 -9 294 -15 482 -15 168 0 309 -2 311 -5 12 -12
37 -230 48 -425 9 -159 9 -254 1 -395 -7 -102 -16 -277 -21 -390 -6 -125 -16
-221 -24 -245 l-14 -40 -99 -12 c-60 -7 -229 -11 -434 -10 -184 0 -533 -3
-775 -7 -360 -6 -443 -5 -457 6 -14 11 -19 46 -28 217 -6 112 -8 206 -5 209 3
3 5 -10 6 -29 0 -27 2 -30 8 -14 13 32 5 157 -11 166 -10 7 -13 64 -13 276 0
147 4 340 8 428 4 88 10 209 13 270 2 60 6 117 9 126 7 22 30 29 80 23 22 -3
396 -8 830 -13z m1530 -151 c3 -5 14 -10 24 -10 17 0 19 -13 25 -142 3 -79 9
-167 12 -197 9 -84 -5 -241 -22 -241 -17 0 -25 32 -22 89 l3 45 -42 9 c-24 4
-43 11 -43 15 0 4 -2 98 -5 210 -2 111 -2 209 1 217 7 17 59 20 69 5z m-208
-42 c-3 -8 -6 -5 -6 6 -1 11 2 17 5 13 3 -3 4 -12 1 -19z m120 -390 c-2 -13
-4 -5 -4 17 -1 22 1 32 4 23 2 -10 2 -28 0 -40z m-429 17 c2 -2 -11 -7 -27
-13 -28 -10 -31 -9 -31 9 0 16 5 18 28 13 15 -4 28 -8 30 -9z m133 -150 c6
-24 17 -50 25 -56 8 -6 14 -16 14 -21 0 -9 -60 -68 -70 -68 -7 0 -12 169 -5
181 13 20 25 7 36 -36z m382 -160 c-7 -21 -13 -19 -13 6 0 11 4 18 10 14 5 -3
7 -12 3 -20z m44 -277 c-2 -18 -4 -6 -4 27 0 33 2 48 4 33 2 -15 2 -42 0 -60z
m-3097 12 c4 0 10 9 13 20 3 11 13 20 22 20 14 0 16 -9 10 -77 -4 -43 -8 -211
-11 -374 l-4 -296 24 -22 c17 -16 42 -24 102 -30 91 -10 112 -10 528 9 312 14
627 8 1061 -20 431 -28 544 -34 690 -40 179 -7 179 -12 0 -15 -66 -1 -149 -8
-185 -14 -98 -19 -200 -25 -200 -12 0 6 7 11 15 11 8 0 15 5 15 11 0 12 -94 4
-147 -13 -31 -9 -46 -28 -22 -28 5 0 8 -4 5 -8 -3 -5 -37 -10 -76 -10 -70 -2
-71 -1 -82 28 l-10 30 -96 -1 c-54 -1 -140 -4 -192 -8 -90 -6 -95 -7 -98 -30
-5 -33 10 -39 82 -34 70 5 97 -6 77 -31 -19 -22 -216 -24 -224 -2 -3 8 1 17
10 21 10 3 13 9 7 14 -12 12 -235 18 -252 8 -7 -5 -27 -8 -45 -7 -74 4 -107 0
-107 -14 0 -14 -21 -26 -46 -26 -8 0 -14 6 -14 14 0 23 -27 26 -72 10 -33 -11
-52 -13 -83 -5 -70 17 -217 23 -285 12 -36 -7 -130 -14 -210 -17 -134 -5 -143
-4 -125 11 11 8 37 18 59 22 22 3 51 17 64 30 12 12 26 23 29 23 4 0 2 -5 -5
-12 -12 -12 1 -38 20 -38 6 0 5 6 -1 14 -9 11 -10 20 -1 35 8 15 8 21 0 21 -6
0 -8 5 -5 10 3 6 3 10 -2 10 -12 -1 -43 -26 -38 -32 7 -7 -72 -43 -87 -40 -5
1 -8 -2 -8 -6 0 -5 -20 -8 -45 -8 -47 1 -53 -2 -33 -22 9 -9 6 -12 -13 -12
-46 0 -57 19 -63 105 -4 44 -13 136 -21 205 -8 69 -14 141 -14 160 l2 35 7
-35 c6 -29 7 -24 8 30 0 46 -2 59 -8 45 -5 -12 -7 64 -3 185 3 113 7 207 9
209 2 2 5 -47 5 -110 1 -91 3 -105 10 -69 4 25 8 64 8 88 1 23 5 50 10 60 5 9
13 26 17 37 7 19 8 19 11 -2 3 -13 8 -23 13 -23z m2796 -35 c49 -8 176 -36
282 -62 l193 -47 -6 -25 c-8 -33 -79 -179 -101 -209 -18 -24 -30 -17 131 -84
101 -42 194 -90 199 -104 3 -9 -11 -33 -32 -57 -21 -23 -64 -81 -96 -129 -32
-49 -59 -88 -61 -88 -1 0 -22 28 -46 63 -105 151 -201 267 -221 267 -19 0
-138 -85 -165 -119 -7 -8 -13 -10 -13 -4 0 6 7 16 15 23 17 14 21 60 5 60 -5
0 -10 -7 -10 -15 0 -8 -7 -15 -16 -15 -12 0 -15 6 -10 24 4 16 1 28 -8 33 -8
4 -17 22 -21 38 l-6 30 15 -26 c14 -25 44 -45 53 -36 4 5 -18 59 -28 67 -3 3
-9 14 -13 25 -5 12 -10 15 -13 8 -9 -24 -33 -1 -33 32 0 18 -10 44 -22 60 -27
34 -84 305 -64 305 2 0 43 -7 92 -15z m267 -563 c8 -16 12 -50 9 -84 -3 -51
-6 -57 -33 -69 -19 -7 -51 -10 -89 -6 -35 4 -62 3 -65 -3 -13 -22 -25 -8 -25
30 0 22 5 40 10 40 6 0 32 19 58 43 60 55 105 87 114 80 5 -2 14 -16 21 -31z
m-276 -158 c-3 -3 -12 -4 -19 -1 -8 3 -5 6 6 6 11 1 17 -2 13 -5z m-1052 -109
c0 -19 -6 -20 -169 -18 -161 3 -187 6 -174 19 8 7 207 22 283 20 53 -1 60 -3
60 -21z m-795 -197 c0 -178 -67 -325 -171 -379 l-39 -19 45 45 c94 94 145 211
145 336 0 39 4 69 10 69 6 0 10 -24 10 -52z m124 43 c3 -4 32 -6 65 -4 33 1
62 -1 65 -5 2 -4 -2 -45 -9 -92 -7 -47 -16 -133 -20 -192 l-7 -107 -88 6 -88
6 -16 -31 c-9 -18 -43 -47 -86 -74 -39 -23 -126 -79 -194 -123 -67 -44 -150
-98 -184 -120 -71 -45 -78 -58 -76 -157 2 -71 -5 -80 -39 -54 -10 8 -68 24
-128 37 -168 34 -216 80 -189 179 29 106 113 158 310 190 330 53 482 125 547
258 26 52 28 66 28 174 l0 116 53 0 c29 0 54 -4 56 -7z m562 -36 c24 -13 26
-15 9 -16 -11 -1 -4 -5 15 -9 29 -6 31 -8 10 -9 -23 -2 -24 -3 -5 -11 14 -7
10 -8 -17 -4 -35 6 -37 5 -47 -32 -12 -43 -9 -50 16 -39 10 4 34 10 53 12 19
2 39 8 45 14 5 5 33 9 63 9 l54 0 -7 -152 c-7 -177 -20 -266 -42 -290 -8 -9
-12 -21 -9 -26 3 -6 -9 -12 -27 -16 -35 -6 -354 -6 -322 1 66 13 64 11 67 61
l3 47 43 6 c65 8 97 45 97 112 0 96 -65 156 -155 144 l-37 -5 1 45 c1 31 6 47
19 54 9 6 17 17 17 25 0 8 6 32 12 54 13 40 13 40 64 40 29 0 65 -7 80 -15z
m-1 -75 c3 -5 1 -10 -4 -10 -6 0 -11 5 -11 10 0 6 2 10 4 10 3 0 8 -4 11 -10z
m-185 -140 c24 0 24 0 -7 -22 -55 -39 -73 -143 -33 -186 12 -12 18 -22 14 -22
-4 0 3 -11 16 -25 29 -31 21 -42 -14 -20 -30 20 -46 13 -39 -15 4 -15 0 -20
-16 -20 -16 0 -21 6 -21 26 0 19 -4 25 -15 20 -11 -4 -15 1 -15 19 0 14 5 25
11 25 5 0 8 4 5 9 -4 5 -2 11 3 13 8 3 -2 125 -12 135 -3 3 -21 -4 -40 -16
-44 -27 -47 -26 -47 4 0 21 5 25 29 25 16 0 31 4 33 9 7 20 74 50 98 45 14 -3
36 -5 50 -4z m138 -61 c51 -101 -26 -179 -132 -135 -78 33 -50 160 40 185 43
12 67 -1 92 -50z m664 -232 c76 -55 182 -141 235 -193 l98 -93 -110 -2 c-60 0
-139 -4 -175 -7 -62 -7 -185 -7 -707 -4 l-233 2 -6 25 c-14 56 -128 86 -165
44 -10 -12 -16 -25 -14 -30 10 -14 -40 -23 -124 -20 -126 4 -130 7 -77 62 33
33 42 49 35 60 -5 7 -9 10 -9 5 0 -5 -9 -1 -20 9 -20 18 -20 19 27 66 73 73
82 86 90 131 6 38 7 40 16 20 5 -12 18 -24 28 -27 11 -4 19 -10 19 -15 0 -5 3
-16 7 -26 4 -12 3 -15 -5 -10 -7 4 -12 3 -12 -3 0 -5 8 -14 18 -20 16 -9 16
-11 -3 -25 -17 -14 -18 -17 -5 -26 19 -13 53 -13 45 0 -3 6 -1 10 5 10 6 0 8
5 4 12 -4 7 -3 8 5 4 6 -4 8 -12 5 -18 -4 -6 -2 -8 4 -4 12 7 62 -13 62 -25 0
-13 72 -32 79 -21 3 6 87 10 209 10 121 0 217 5 237 12 39 13 54 47 60 138 3
31 4 59 5 60 0 2 53 2 118 0 l117 -3 137 -98z m-919 -284 c-7 -2 -19 -2 -25 0
-7 3 -2 5 12 5 14 0 19 -2 13 -5z m-483 -14 c-12 -9 -11 -10 5 -4 27 9 251 6
295 -4 33 -9 32 -9 -20 -11 -53 -1 -118 -18 -77 -19 9 -1 17 -5 17 -11 0 -10
-80 -16 -160 -11 -45 2 -100 20 -100 33 0 21 15 38 34 38 18 0 19 -2 6 -11z
m425 -39 c3 -5 -1 -10 -10 -10 -9 0 -13 5 -10 10 3 6 8 10 10 10 2 0 7 -4 10
-10z m1006 -2 c-23 -6 -37 -6 -44 1 -8 8 2 11 34 10 l44 -1 -34 -10z m274 -14
c-30 -12 -61 -14 -125 -9 -142 11 -128 24 25 24 136 0 139 -1 100 -15z m920
-204 c6 -4 40 -15 78 -24 61 -17 147 -65 147 -84 0 -4 -24 -13 -52 -20 l-53
-12 -59 65 c-47 53 -65 66 -97 71 -21 4 -37 10 -34 14 5 8 54 1 70 -10z m88
-1 c59 -16 39 -20 -23 -5 -30 8 -46 14 -35 15 11 0 37 -4 58 -10z m-149 -19
c62 -21 136 -72 156 -111 9 -16 5 -21 -27 -34 -21 -9 -65 -34 -99 -55 -33 -22
-69 -40 -80 -40 -41 0 -97 88 -93 148 1 21 -2 46 -6 56 -5 12 -4 21 2 23 5 2
19 10 29 18 26 19 44 19 118 -5z m-170 -185 c29 -45 29 -84 0 -55 -6 6 -30 20
-55 33 -60 30 -62 58 -12 117 l38 44 6 -57 c4 -31 14 -68 23 -82z m-1459 104
c171 -4 430 -10 576 -12 146 -2 273 -8 281 -13 19 -10 73 -81 108 -139 13 -22
54 -87 92 -144 37 -57 68 -110 68 -116 0 -7 -12 -16 -27 -20 -43 -10 -862 -18
-918 -8 -28 5 -285 5 -580 1 -656 -9 -706 -6 -677 38 8 13 843 24 1042 15 63
-3 171 -2 240 2 78 5 235 3 415 -5 384 -17 419 -17 423 2 1 9 -14 33 -34 55
-20 22 -67 85 -104 140 -37 55 -76 108 -87 118 -31 27 -120 37 -353 37 -118 0
-307 5 -420 10 -216 11 -716 14 -741 6 -8 -3 -138 -7 -289 -10 -151 -3 -290
-8 -308 -12 -34 -7 -40 -13 -174 -194 -60 -81 -65 -85 -106 -88 -23 -2 -42 1
-42 6 0 32 200 272 258 310 14 9 55 20 92 23 89 8 885 7 1265 -2z m2005 -107
c16 -25 43 -79 59 -122 25 -63 28 -83 21 -114 -12 -53 -20 -57 -20 -10 0 33
-5 44 -30 62 -33 25 -106 30 -143 10 -38 -20 -156 -13 -210 12 -26 12 -47 28
-47 34 0 7 -9 22 -20 33 l-20 22 48 34 c49 35 147 76 242 101 64 16 70 13 120
-62z m-2450 34 c0 -21 -6 -24 -57 -30 -46 -5 -60 -4 -69 9 -10 14 -12 14 -18
0 -4 -11 -20 -15 -61 -15 -45 0 -55 3 -56 18 0 13 -2 12 -9 -5 -8 -20 -17 -23
-60 -23 -48 0 -51 1 -45 23 6 21 6 21 -9 3 -9 -11 -16 -23 -16 -28 0 -4 -19
-9 -42 -10 l-43 -1 38 -4 c39 -4 45 -13 23 -35 -17 -18 -96 -12 -96 8 0 7 6
17 13 21 6 4 12 18 13 31 l1 22 -24 -22 c-12 -12 -21 -23 -18 -26 2 -3 0 -13
-6 -23 -7 -15 -21 -19 -59 -19 -28 0 -50 3 -50 7 0 15 33 41 46 36 8 -3 14 0
14 6 0 6 -7 11 -15 11 -14 0 -14 3 0 30 l15 30 173 2 c94 2 227 4 295 5 122 2
122 2 122 -21z m233 14 c25 0 37 -5 37 -14 0 -16 -60 -24 -182 -26 -70 -1 -78
1 -78 18 0 10 2 21 5 24 3 3 45 4 93 2 48 -2 104 -3 125 -4z m-963 -9 c0 -28
-38 -49 -92 -53 -62 -5 -66 -2 -44 27 16 23 136 46 136 26z m120 0 c0 -4 -9
-20 -21 -35 -14 -18 -30 -26 -52 -26 -49 0 -60 11 -46 43 11 24 18 27 66 27
29 0 53 -4 53 -9z m1280 -4 c0 -8 3 -8 9 2 7 11 28 12 97 8 49 -4 166 -10 259
-13 162 -6 226 -17 215 -39 -3 -6 -12 -9 -20 -7 -70 11 -422 16 -476 6 -26 -5
-40 -2 -54 11 -17 16 -20 16 -20 2 0 -8 -10 -18 -22 -20 -17 -3 -15 -5 8 -6
22 -1 37 -9 49 -27 9 -14 14 -28 12 -31 -3 -3 -35 -2 -70 2 -64 7 -65 8 -102
59 -20 28 -34 43 -31 32 6 -17 2 -18 -51 -11 -32 4 -61 12 -65 19 -6 8 -8 7
-8 -2 0 -9 -15 -12 -57 -10 -46 2 -59 7 -61 20 -3 16 12 18 192 18 147 -1 196
-4 196 -13z m-528 -61 c19 -29 8 -36 -62 -36 -63 0 -70 2 -70 20 0 10 7 23 14
27 21 11 109 3 118 -11z m-154 -8 c-3 -21 -9 -23 -65 -26 -56 -3 -63 -1 -63
16 0 28 8 32 72 32 56 0 59 -1 56 -22z m292 1 c7 -11 10 -22 8 -24 -3 -3 -95
-8 -115 -6 -7 0 -13 12 -13 26 0 24 3 25 55 25 45 0 56 -4 65 -21z m130 12 c0
-5 3 -17 6 -26 6 -14 -1 -16 -52 -13 -52 3 -59 5 -62 26 -3 21 0 22 52 22 31
0 56 -4 56 -9z m139 -17 c6 -15 10 -28 9 -30 -2 -2 -29 0 -60 3 -46 5 -58 10
-67 29 -10 24 -10 24 48 24 53 0 59 -2 70 -26z m-841 -6 c-3 -20 -10 -23 -56
-26 -47 -3 -53 -1 -50 15 2 12 16 20 43 24 67 10 67 10 63 -13z m132 3 c0 -23
-19 -31 -69 -31 -45 0 -54 7 -40 31 7 15 21 19 59 19 42 0 50 -3 50 -19z
m1026 2 c26 -35 17 -43 -45 -43 -55 0 -61 2 -81 30 l-21 30 67 0 c52 0 70 -4
80 -17z m154 -13 l21 -30 -59 0 c-44 0 -63 5 -74 18 -34 39 -32 42 31 42 55 0
61 -2 81 -30z m111 24 c26 -4 41 -15 54 -36 l18 -30 -68 4 c-56 3 -70 8 -86
29 -10 13 -19 27 -19 32 0 8 51 9 101 1z m-1925 -33 c-14 -25 -19 -28 -57 -25
-58 5 -74 -10 -17 -16 l47 -5 -20 -32 c-20 -32 -23 -33 -90 -33 -38 0 -69 3
-69 8 0 4 16 24 35 45 19 21 35 41 35 44 0 4 7 15 17 25 12 13 31 18 75 18
l59 0 -15 -29z m122 4 c-10 -22 -17 -25 -65 -25 -55 0 -57 3 -30 38 5 6 31 12
58 12 48 0 48 0 37 -25z m1965 -4 c24 -40 22 -43 -24 -39 -33 2 -47 10 -67 36
l-25 32 50 0 c43 0 51 -3 66 -29z m-1605 -58 l-3 -38 -62 -3 c-66 -3 -71 0
-52 42 11 24 27 30 97 34 21 2 23 -2 20 -35z m134 7 c-4 -46 -9 -50 -67 -50
-59 0 -64 5 -45 55 9 24 14 26 62 23 50 -3 53 -4 50 -28z m163 -5 l0 -30 -72
-3 c-67 -3 -73 -1 -73 17 0 46 9 52 79 49 l66 -3 0 -30z m133 26 c30 -1 32 -3
32 -37 l0 -35 -72 7 c-40 3 -75 8 -77 10 -2 2 -1 14 3 28 6 25 26 35 61 30 11
-1 35 -3 53 -3z m-688 -11 c0 -5 -5 -21 -12 -35 -10 -22 -17 -25 -64 -25 l-54
0 17 35 c16 33 20 35 65 35 26 0 48 -4 48 -10z m130 0 c0 -5 -5 -21 -12 -35
-10 -22 -17 -25 -65 -25 -29 0 -53 2 -53 5 0 4 7 19 15 35 14 27 20 30 65 30
28 0 50 -4 50 -10z m733 3 c2 -5 7 -19 10 -33 6 -25 6 -25 -66 -24 -59 1 -73
4 -75 18 -8 37 5 46 67 46 33 0 62 -3 64 -7z m147 -19 c16 -41 13 -44 -43 -44
-58 0 -77 12 -77 47 0 21 4 23 55 23 50 0 56 -2 65 -26z m153 -9 l17 -35 -65
0 c-53 0 -66 3 -75 19 -22 42 -14 51 48 51 57 0 59 -1 75 -35z m172 -7 c11
-20 17 -39 15 -41 -3 -2 -36 -2 -73 1 -67 4 -68 5 -88 44 l-20 39 73 -3 c73
-3 73 -3 93 -40z m112 32 c20 0 73 -60 73 -82 0 -5 -27 -8 -60 -8 -59 0 -60 1
-85 40 -35 55 -33 64 13 56 20 -3 47 -6 59 -6z m-1591 -29 c-17 -32 -45 -43
-87 -34 -34 6 -34 6 -13 38 14 21 24 25 65 25 l50 0 -15 -29z m1757 20 c21 -8
67 -66 67 -85 0 -8 -58 -8 -97 0 -22 4 -37 17 -52 44 -11 21 -21 40 -21 44 0
9 76 7 103 -3z m208 -42 c16 -19 29 -37 29 -41 0 -13 -44 -18 -95 -10 -44 6
-52 11 -67 42 -9 19 -17 39 -18 44 0 4 28 6 61 4 55 -4 64 -8 90 -39z m107 -4
c12 -19 22 -37 22 -40 0 -3 -15 -5 -33 -5 -27 0 -40 8 -66 40 l-32 40 43 0
c38 0 46 -4 66 -35z m-1834 -37 c-3 -13 -13 -35 -20 -49 -12 -25 -17 -26 -61
-21 -26 2 -49 6 -51 7 -3 3 25 69 34 78 4 4 29 7 56 7 47 0 49 -1 42 -22z
m852 6 c85 -6 91 -8 106 -34 l16 -28 -307 -4 c-241 -3 -309 -1 -319 9 -18 17
-25 16 -18 -2 4 -12 2 -13 -13 -5 -13 7 -20 7 -23 -1 -2 -6 -63 -13 -152 -16
l-149 -6 7 26 c3 14 11 38 16 53 l10 26 368 -6 c202 -3 408 -8 458 -12z
m-1256 -8 c0 -6 -12 -23 -27 -38 -24 -25 -34 -28 -90 -28 -71 0 -77 9 -42 54
20 25 26 27 90 24 38 -2 69 -7 69 -12z m129 2 c0 -7 -8 -26 -18 -43 -16 -26
-23 -30 -67 -31 -27 -1 -52 0 -56 3 -4 2 2 19 15 38 21 33 34 38 105 43 12 1
22 -4 21 -10z m141 5 c-2 -26 -38 -78 -53 -77 -9 0 -33 1 -52 2 -41 2 -42 6
-15 50 18 29 24 32 70 32 27 0 50 -3 50 -7z m1242 -22 c3 -3 8 -15 10 -26 3
-18 -3 -20 -54 -23 -54 -3 -58 -2 -72 27 -9 17 -16 33 -16 36 0 8 122 -5 132
-14z m182 -7 c10 -26 7 -34 -14 -34 -11 0 -20 5 -20 10 0 6 -14 10 -31 10 -16
0 -28 -4 -25 -9 3 -5 -5 -11 -18 -13 -18 -4 -27 1 -35 19 -6 13 -11 26 -11 28
0 3 33 5 74 5 58 0 75 -3 80 -16z m163 -13 c10 -14 4 -17 -55 -23 -37 -4 -67
-6 -68 -5 -2 1 -5 14 -9 28 l-6 25 63 -4 c42 -3 67 -10 75 -21z m156 -9 c29
-25 20 -30 -45 -25 -64 6 -88 16 -88 37 0 18 111 8 133 -12z m317 -44 c0 -11
-72 -9 -90 2 -8 5 -10 10 -5 10 6 0 2 5 -7 11 -27 15 -22 27 15 38 29 8 35 5
59 -23 15 -17 28 -34 28 -38z m-140 26 c0 -26 0 -26 -62 -19 -61 7 -88 18 -88
36 0 5 34 9 75 9 74 0 75 0 75 -26z m-2153 -40 c69 -6 79 -9 68 -20 -10 -10
-44 -14 -124 -14 -104 0 -110 1 -108 20 1 23 23 24 164 14z m126 -1 c-7 -2
-19 -2 -25 0 -7 3 -2 5 12 5 14 0 19 -2 13 -5z m662 -73 l70 -7 -69 -2 c-78
-1 -81 -8 -9 -21 64 -10 -165 -12 -415 -3 -163 5 -182 8 -182 23 0 16 20 18
268 18 147 0 299 -4 337 -8z m616 -6 c-19 -9 -85 -18 -155 -22 l-121 -7 90 -6
90 -5 -85 -1 c-78 -1 -108 2 -255 26 -47 8 -45 8 40 11 50 1 135 6 190 10 55
3 132 7 170 8 l70 0 -34 -14z m202 -1 c-29 -2 -78 -2 -110 0 -32 2 -8 3 52 3
61 0 87 -1 58 -3z m250 0 c-7 -2 -21 -2 -30 0 -10 3 -4 5 12 5 17 0 24 -2 18
-5z m160 -10 c-7 -2 -19 -2 -25 0 -7 3 -2 5 12 5 14 0 19 -2 13 -5z m-135 -10
c-10 -2 -26 -2 -35 0 -10 3 -2 5 17 5 19 0 27 -2 18 -5z m32 -23 c0 -13 -80
-13 -100 0 -11 7 2 10 43 10 31 0 57 -4 57 -10z m-7 -27 c-7 -2 -21 -2 -30 0
-10 3 -4 5 12 5 17 0 24 -2 18 -5z"/>
<path d="M6396 6771 c-5 -7 2 -11 16 -11 13 0 54 -16 93 -34 38 -19 71 -33 73
-31 6 6 -121 76 -148 82 -15 3 -31 0 -34 -6z"/>
<path d="M6515 6768 c11 -6 38 -27 59 -47 l39 -36 -18 31 c-18 32 -62 64 -87
64 -7 0 -4 -5 7 -12z"/>
<path d="M5510 6330 c-6 -12 -10 -33 -8 -48 2 -22 5 -18 14 21 12 51 11 58 -6
27z"/>
<path d="M5665 6271 c4 -8 12 -28 16 -45 l7 -31 1 31 c1 19 -6 37 -16 45 -14
12 -16 12 -8 0z"/>
<path d="M5225 5746 c-71 -33 -139 -95 -168 -152 -8 -16 -18 -55 -22 -86 -6
-47 -3 -70 19 -135 32 -95 50 -124 111 -174 55 -46 97 -59 185 -59 83 0 149
30 207 92 62 68 76 102 81 194 5 99 -11 157 -70 244 -60 91 -94 110 -193 110
-71 0 -89 -4 -150 -34z m184 8 c2 -2 -4 -14 -12 -28 -23 -34 -89 -272 -85
-305 2 -15 9 -26 18 -26 9 0 40 -16 70 -36 30 -20 76 -48 103 -63 51 -30 55
-37 32 -56 -13 -11 -14 -10 -9 6 3 10 -3 5 -14 -12 -19 -30 -67 -55 -101 -53
-9 1 -5 5 9 9 18 6 5 8 -46 9 -73 1 -102 14 -117 54 -3 9 -12 17 -19 17 -24 0
-113 92 -124 129 -9 30 -12 33 -19 18 -5 -12 -1 -27 12 -45 11 -15 22 -40 25
-57 6 -28 5 -29 -9 -10 -8 11 -26 43 -39 70 -29 60 -33 159 -8 210 40 86 142
160 238 176 37 5 84 2 95 -7z m107 -68 c55 -58 94 -128 94 -170 0 -6 -35 -22
-77 -34 -43 -13 -102 -34 -130 -47 -29 -14 -53 -21 -53 -17 0 4 11 54 25 112
14 58 30 131 36 163 8 42 15 57 27 57 9 0 44 -29 78 -64z m104 -260 c0 -58
-22 -124 -45 -132 -8 -3 -33 7 -57 23 -24 17 -66 41 -95 54 -29 13 -52 27 -53
30 0 4 33 17 73 29 39 12 90 28 112 35 64 21 65 20 65 -39z m-317 -243 c-7 -2
-19 -2 -25 0 -7 3 -2 5 12 5 14 0 19 -2 13 -5z"/>
<path d="M6000 5736 c-104 -44 -265 -129 -252 -134 13 -4 322 144 322 154 0 7
-15 3 -70 -20z"/>
<path d="M5935 5636 c-171 -85 -255 -134 -170 -101 80 32 366 185 344 185 -2
0 -81 -38 -174 -84z"/>
<path d="M6055 5629 c-98 -49 -245 -136 -245 -145 0 -2 15 3 33 12 65 34 317
176 317 180 0 6 5 8 -105 -47z"/>
<path d="M5990 5530 c-63 -33 -131 -74 -150 -91 -29 -26 -17 -22 75 27 61 32
131 69 158 83 41 22 61 42 40 41 -5 -1 -60 -28 -123 -60z"/>
<path d="M5980 5337 c-88 -50 -158 -97 -146 -97 12 0 170 86 216 116 58 40 9
27 -70 -19z"/>
<path d="M6040 5324 c-79 -49 -171 -117 -165 -122 6 -7 249 134 253 147 7 20
-33 9 -88 -25z"/>
<path d="M6075 5276 c-57 -27 -101 -59 -194 -142 -2 -2 1 -4 6 -4 6 0 67 37
135 81 138 92 133 88 127 93 -2 2 -36 -10 -74 -28z"/>
<path d="M6139 5225 c-73 -29 -239 -141 -239 -161 0 -25 28 -84 41 -84 15 0
211 104 265 141 53 36 59 53 32 89 -29 40 -36 41 -99 15z m1 -35 c-8 -5 -19
-10 -25 -10 -5 0 -3 5 5 10 8 5 20 10 25 10 6 0 3 -5 -5 -10z m-197 -124 c-12
-16 -21 -21 -28 -15 -7 7 -3 15 9 25 30 22 39 17 19 -10z"/>
<path d="M6412 5013 c-139 -74 -251 -138 -248 -140 5 -6 91 37 296 148 144 78
226 129 210 129 -3 0 -119 -62 -258 -137z"/>
<path d="M5710 5093 c-74 -40 -80 -45 -45 -39 21 4 52 14 68 23 16 8 31 12 34
9 17 -17 -101 -142 -167 -176 -61 -32 -205 -5 -259 49 -12 12 -21 17 -21 12 0
-17 68 -69 107 -82 56 -19 151 -17 196 5 22 11 63 41 93 69 l54 49 0 -30 c0
-33 27 -65 34 -41 10 33 26 135 26 166 0 44 -15 43 -120 -14z"/>
<path d="M5080 5000 c0 -11 4 -20 9 -20 5 0 7 9 4 20 -3 11 -7 20 -9 20 -2 0
-4 -9 -4 -20z"/>
<path d="M6250 4890 c-14 -11 -28 -20 -32 -20 -3 0 -42 -22 -85 -49 -43 -27
-121 -75 -173 -107 -160 -96 -344 -213 -370 -235 -38 -32 97 43 270 151 238
148 362 223 394 241 29 15 47 39 29 39 -4 0 -19 -9 -33 -20z"/>
<path d="M6025 4799 c-60 -37 -153 -93 -205 -125 -115 -70 -252 -166 -246
-171 2 -3 60 33 128 78 67 46 184 119 258 163 149 89 186 114 179 119 -2 2
-53 -27 -114 -64z"/>
<path d="M5091 6134 c0 -11 3 -14 6 -6 3 7 2 16 -1 19 -3 4 -6 -2 -5 -13z"/>
<path d="M4703 5965 c0 -22 2 -30 4 -17 2 12 2 30 0 40 -3 9 -5 -1 -4 -23z"/>
<path d="M4661 5645 c-1 -19 46 -169 83 -265 41 -106 105 -229 140 -271 13
-16 26 -34 29 -41 2 -7 7 -10 11 -7 4 3 -10 30 -30 60 -67 100 -133 243 -195
424 -21 61 -38 106 -38 100z"/>
<path d="M4960 4985 c0 -26 144 -208 217 -274 91 -82 101 -78 12 6 -39 37
-104 113 -146 170 -69 96 -83 112 -83 98z"/>
<path d="M5365 4535 c40 -37 93 -70 101 -63 4 5 -114 91 -131 96 -5 2 8 -13
30 -33z"/>
<path d="M5050 4570 c0 -5 5 -10 10 -10 6 0 10 5 10 10 0 6 -4 10 -10 10 -5 0
-10 -4 -10 -10z"/>
<path d="M4671 4524 c0 -11 3 -14 6 -6 3 7 2 16 -1 19 -3 4 -6 -2 -5 -13z"/>
<path d="M2886 4554 c-7 -19 1 -34 19 -34 15 0 28 27 19 41 -9 14 -31 10 -38
-7z"/>
<path d="M2988 4559 c-20 -11 -24 -39 -7 -39 20 0 49 21 49 35 0 17 -17 19
-42 4z"/>
<path d="M3091 4552 c-11 -21 -6 -32 16 -32 15 0 18 36 4 45 -6 3 -15 -3 -20
-13z"/>
<path d="M3290 4531 c13 -10 219 -16 209 -7 -2 2 -53 7 -114 10 -77 5 -105 4
-95 -3z"/>
<path d="M3775 4520 c-32 -4 18 -7 144 -8 107 -1 192 0 190 2 -9 8 -287 13
-334 6z"/>
<path d="M4335 4523 c-22 -3 -44 -9 -50 -15 -7 -7 6 -9 45 -4 30 3 68 6 83 6
16 0 26 4 22 10 -6 10 -23 10 -100 3z"/>
<path d="M4490 4520 c20 -13 53 -13 45 0 -3 6 -18 10 -33 10 -21 0 -24 -2 -12
-10z"/>
<path d="M3594 4321 c-87 -25 -229 -108 -278 -162 -97 -108 -139 -232 -140
-414 -1 -115 0 -123 30 -185 19 -40 55 -89 92 -127 115 -116 322 -192 492
-180 204 14 385 186 460 435 19 67 20 82 11 160 -6 48 -21 116 -33 152 -44
128 -224 266 -418 319 -89 25 -135 25 -216 2z m152 -21 c16 -5 48 -14 71 -20
40 -10 46 -21 30 -47 -5 -8 -3 -13 3 -13 6 0 8 -4 5 -10 -3 -5 1 -10 9 -10 9
0 16 -4 16 -10 0 -5 -10 -9 -23 -8 -31 3 -87 -32 -93 -59 -12 -46 14 -67 121
-96 l50 -13 -70 -35 c-84 -42 -104 -75 -67 -112 20 -19 32 -22 97 -20 41 0 75
-2 75 -7 0 -4 -42 -22 -92 -40 -105 -37 -116 -44 -129 -78 -11 -28 -5 -39 71
-143 134 -184 215 -180 164 8 -21 78 -14 89 64 95 l53 5 -5 -38 c-3 -22 -24
-67 -47 -102 -23 -34 -32 -53 -20 -43 23 21 23 21 25 -39 0 -11 4 -22 8 -25 4
-4 1 -16 -8 -29 -15 -20 -17 -21 -28 -5 -11 15 -20 15 -78 5 -102 -18 -221
-14 -299 9 -80 24 -83 33 -49 122 11 29 20 62 20 74 0 29 -45 112 -82 150 -19
21 -31 46 -35 72 -7 51 10 61 122 71 45 5 87 11 93 15 32 20 -4 88 -67 127
-27 16 -51 35 -53 42 -9 25 4 107 16 107 23 0 44 33 36 55 -14 33 -11 43 13
48 39 8 53 7 83 -3z m-176 -92 c0 -7 -7 -34 -17 -60 -15 -43 -15 -48 0 -71 10
-15 40 -34 73 -47 59 -21 83 -42 84 -71 0 -13 -15 -17 -70 -22 -38 -3 -89 -15
-113 -25 -38 -17 -45 -25 -50 -57 -7 -44 2 -65 55 -123 73 -80 77 -108 26
-220 l-23 -52 -35 28 c-19 15 -56 40 -81 55 -80 45 -81 118 -4 207 46 52 37
74 -55 136 -19 13 -52 38 -74 57 l-38 34 22 44 c35 70 95 143 131 160 19 10
61 21 94 27 33 5 63 10 68 11 4 0 7 -5 7 -11z m430 -12 c0 -3 -4 -8 -10 -11
-5 -3 -10 -1 -10 4 0 6 5 11 10 11 6 0 10 -2 10 -4z m94 -78 c54 -55 97 -141
111 -225 l7 -43 -35 0 c-40 0 -67 -21 -67 -52 0 -20 -1 -20 -18 -5 -21 19 -59
22 -82 7 -13 -9 -13 -11 0 -20 8 -5 27 -10 42 -10 58 0 41 -31 -28 -49 -58
-16 -78 -41 -69 -88 13 -73 17 -163 7 -163 -14 0 -33 26 -25 34 4 4 0 4 -9 1
-11 -4 -23 4 -39 27 -12 18 -43 58 -69 88 -87 103 -87 103 95 149 38 10 85 43
85 59 -1 27 -21 35 -92 33 -61 -2 -79 2 -99 18 -23 19 -23 19 -5 40 10 11 28
23 40 27 11 3 45 17 74 31 81 38 69 76 -29 93 -64 10 -109 26 -109 38 0 25 45
46 113 52 149 14 143 15 201 -42z m-698 -342 c-9 -37 -24 -32 -21 7 4 43 3 43
16 30 7 -7 9 -23 5 -37z m-13 -311 c33 7 36 5 53 -32 10 -21 34 -52 53 -70 20
-18 30 -32 23 -33 -23 0 -53 21 -46 32 4 7 3 8 -4 4 -24 -15 -101 39 -153 108
-14 19 -13 19 13 2 19 -12 36 -15 61 -11z"/>
<path d="M3590 3975 c0 -9 6 -12 15 -9 8 4 15 3 15 0 0 -4 -10 -11 -22 -16
-13 -5 -16 -9 -8 -9 8 0 21 3 29 8 12 8 12 12 2 25 -17 20 -31 21 -31 1z"/>
<path d="M4068 3979 c-37 -14 -43 -38 -17 -66 25 -25 84 -32 120 -12 35 18 10
30 -51 23 -90 -10 -87 27 4 53 l41 11 -35 0 c-19 0 -47 -4 -62 -9z"/>
<path d="M2837 4213 c-11 -81 -20 -258 -14 -253 3 3 11 71 16 150 10 143 9
194 -2 103z"/>
<path d="M2812 3640 c0 -19 2 -27 5 -17 2 9 2 25 0 35 -3 9 -5 1 -5 -18z"/>
<path d="M3227 3213 c-11 -10 -8 -117 4 -152 6 -17 19 -36 29 -41 28 -15 76
-12 90 5 16 20 25 19 59 -6 63 -47 130 -4 138 88 5 60 -13 98 -47 98 -21 0
-28 -8 -41 -50 l-17 -50 -11 28 c-6 16 -11 32 -11 36 0 4 -9 16 -19 25 -31 29
-59 12 -73 -42 l-12 -47 -11 37 c-16 59 -55 94 -78 71z m49 -58 c7 -19 14 -44
14 -55 0 -15 7 -20 25 -20 26 0 31 12 37 75 2 22 8 30 22 30 15 0 24 -13 37
-50 9 -27 22 -51 28 -53 21 -7 40 19 47 64 9 63 28 50 32 -22 3 -53 0 -62 -23
-84 -34 -32 -73 -19 -98 33 -18 36 -37 42 -37 11 0 -23 -38 -54 -65 -54 -21 0
-30 9 -45 43 -19 42 -26 98 -13 110 13 14 24 6 39 -28z"/>
<path d="M3610 3200 c-15 -28 -2 -46 16 -23 13 17 15 17 28 0 7 -9 16 -35 20
-57 11 -69 66 -45 66 29 0 61 41 47 62 -21 21 -70 57 -62 67 14 4 29 11 43 21
43 11 0 16 -15 18 -60 3 -54 0 -63 -23 -85 -21 -20 -30 -22 -52 -14 -15 5 -37
26 -49 47 l-21 37 -24 -37 c-41 -64 -89 -55 -111 21 -17 60 -30 69 -23 16 4
-25 15 -56 24 -70 23 -33 78 -39 107 -12 20 19 21 19 50 -4 39 -32 87 -31 119
1 21 21 25 33 25 89 0 45 -5 69 -16 80 -32 32 -57 15 -68 -46 -8 -45 -23 -49
-31 -10 -19 88 -78 97 -101 16 l-11 -39 -13 40 c-19 62 -59 84 -80 45z"/>
<path d="M3995 3209 c-21 -33 -6 -150 22 -181 21 -23 74 -23 99 1 20 18 21 18
50 -5 84 -68 176 17 145 134 -19 69 -72 67 -85 -3 -8 -42 -23 -45 -32 -7 -13
53 -57 80 -82 50 -6 -7 -14 -29 -19 -48 l-9 -35 -12 34 c-20 58 -60 89 -77 60z
m49 -65 c4 -21 10 -45 12 -51 2 -7 14 -13 28 -13 25 0 36 21 36 72 0 58 39 44
59 -22 7 -23 19 -44 28 -47 20 -8 43 22 43 56 0 14 5 33 10 41 16 24 30 -6 30
-62 0 -35 -6 -54 -24 -75 -21 -24 -27 -26 -52 -18 -17 6 -38 26 -51 50 -22 39
-22 39 -31 15 -14 -36 -47 -62 -74 -58 -28 4 -57 58 -58 109 0 63 30 66 44 3z"/>
<path d="M5293 4230 c0 -25 2 -35 4 -22 2 12 2 32 0 45 -2 12 -4 2 -4 -23z"/>
<path d="M5296 4121 c-4 -7 -5 -15 -2 -18 9 -9 19 4 14 18 -4 11 -6 11 -12 0z"/>
<path d="M2360 2610 c0 -5 4 -10 9 -10 6 0 13 5 16 10 3 6 -1 10 -9 10 -9 0
-16 -4 -16 -10z"/>
<path d="M2470 2572 c0 -12 19 -26 26 -19 2 2 -2 10 -11 17 -9 8 -15 8 -15 2z"/>
<path d="M3954 1929 c-9 -15 1 -21 26 -17 21 3 21 3 1 15 -14 9 -22 9 -27 2z"/>
<path d="M3540 2101 c0 -5 5 -13 10 -16 6 -3 10 -2 10 4 0 5 -4 13 -10 16 -5
3 -10 2 -10 -4z"/>
<path d="M4228 1704 c-3 -3 -3 -14 -1 -25 5 -16 8 -18 15 -7 7 10 11 10 14 1
7 -16 44 5 44 24 0 13 -61 19 -72 7z"/>
<path d="M3340 720 c0 -5 7 -10 16 -10 8 0 12 5 9 10 -3 6 -10 10 -16 10 -5 0
-9 -4 -9 -10z"/>
<path d="M2340 6935 c-5 -14 -10 -33 -10 -41 0 -11 -17 -14 -75 -16 -41 -1
-83 -2 -92 -2 -11 -1 -20 10 -25 32 -6 23 -14 32 -29 32 -34 0 -127 -30 -148
-48 -18 -15 -19 -22 -10 -64 10 -47 10 -48 -32 -97 l-42 -49 -44 20 c-33 14
-48 17 -57 9 -12 -10 -56 -116 -56 -134 0 -4 14 -13 30 -22 29 -15 30 -18 30
-85 0 -57 -3 -70 -15 -70 -9 0 -29 -7 -44 -15 -27 -13 -28 -17 -23 -67 7 -83
14 -90 80 -87 55 3 57 2 76 -32 11 -19 35 -54 54 -77 l35 -44 -21 -41 c-24
-48 -19 -65 32 -96 52 -32 83 -28 127 20 32 35 40 39 58 30 11 -6 31 -11 45
-11 31 0 40 -14 37 -61 -2 -34 1 -38 30 -44 17 -4 60 -4 95 0 73 8 86 21 78
76 -5 30 -2 36 26 52 42 23 47 22 62 -10 22 -47 60 -43 118 11 27 25 54 46 60
46 20 0 10 54 -16 81 -25 26 -26 29 -14 82 18 79 19 80 74 66 30 -7 51 -8 57
-2 16 16 39 156 27 170 -7 8 -35 13 -77 13 l-66 -1 24 -19 c13 -11 36 -20 53
-20 l29 0 -3 -62 c-3 -69 0 -66 -74 -54 l-41 7 -24 -58 c-13 -32 -28 -68 -35
-80 -11 -23 -11 -23 -29 -3 -19 22 -45 25 -73 11 -9 -5 -28 -14 -42 -20 l-25
-11 28 5 c24 5 27 2 27 -20 0 -14 -5 -25 -10 -25 -20 0 9 -38 32 -43 17 -3 15
-5 -8 -6 -17 0 -37 -7 -43 -15 -7 -8 -25 -18 -41 -21 -42 -9 -51 -25 -40 -65
5 -19 6 -38 2 -42 -4 -4 -36 -11 -70 -14 l-61 -7 6 35 c8 54 -7 70 -82 89
l-66 16 -51 -45 -50 -46 -34 19 c-39 21 -41 27 -15 63 32 46 30 55 -14 102
-24 25 -56 68 -73 95 l-29 50 -50 -3 -50 -4 -8 47 c-8 55 -3 62 45 67 l35 3 2
84 c2 88 -5 111 -38 111 -23 0 -24 8 -3 60 18 44 32 48 75 23 28 -17 30 -17
45 5 22 32 66 71 86 77 25 9 28 30 12 80 -12 33 -13 49 -5 59 11 13 117 43
125 35 12 -12 9 -44 -4 -45 -33 -2 -36 -5 -35 -30 0 -17 9 -30 25 -39 37 -21
50 -18 56 14 5 24 12 30 44 35 21 3 62 1 91 -4 30 -6 57 -6 62 -1 4 4 8 27 9
50 0 23 3 41 7 39 3 -2 27 -11 54 -22 47 -19 52 -28 39 -71 -5 -13 -16 -20
-32 -20 -22 0 -25 -5 -28 -38 -4 -46 17 -70 61 -70 18 0 35 -4 38 -9 3 -5 9
-3 12 6 5 13 -1 16 -26 17 -18 0 -26 3 -18 6 11 5 11 7 0 14 -12 7 -11 9 1 8
8 0 29 -9 45 -20 49 -31 55 -32 83 -18 44 22 45 22 38 10 -7 -11 -2 -13 39
-15 32 -2 32 -44 1 -56 -37 -14 -32 -31 7 -26 30 5 30 4 -10 -14 -24 -11 -43
-21 -43 -24 0 -16 43 -117 52 -122 11 -7 6 55 -8 89 -3 9 8 22 32 36 35 21 36
23 31 66 -8 58 -32 114 -52 121 -9 4 -41 -7 -73 -24 l-57 -30 -38 33 -38 33
12 47 c7 27 8 50 3 55 -5 5 -31 17 -59 28 -27 11 -58 23 -67 27 -13 5 -20 0
-28 -20z m205 -916 c4 -13 12 -18 21 -15 9 3 12 1 9 -4 -10 -16 -22 -12 -39
15 -9 14 -12 25 -7 25 5 0 13 -9 16 -21z"/>
<path d="M2445 6880 c3 -5 8 -10 11 -10 2 0 4 5 4 10 0 6 -5 10 -11 10 -5 0
-7 -4 -4 -10z"/>
<path d="M2135 6730 c-3 -5 1 -10 9 -10 9 0 16 5 16 10 0 6 -4 10 -9 10 -6 0
-13 -4 -16 -10z"/>
<path d="M2620 6699 c0 -5 5 -7 10 -4 6 3 10 8 10 11 0 2 -4 4 -10 4 -5 0 -10
-5 -10 -11z"/>
<path d="M2403 6663 c14 -16 37 -41 52 -58 l27 -30 -23 35 c-29 45 -60 80 -72
80 -5 0 3 -12 16 -27z"/>
<path d="M2176 6670 c-141 -43 -209 -244 -128 -384 60 -106 305 -109 385 -4
40 52 54 125 38 201 -7 34 -19 73 -26 88 -41 79 -173 127 -269 99z m149 -34
c63 -29 100 -72 120 -138 40 -134 -12 -242 -128 -268 -104 -24 -190 8 -234 85
-69 123 -47 267 51 326 44 27 128 25 191 -5z"/>
<path d="M2198 6546 c-42 -18 -78 -73 -78 -118 0 -29 8 -47 34 -75 30 -33 39
-37 94 -41 59 -4 63 -3 92 28 16 17 35 51 41 73 10 37 9 47 -11 83 -12 23 -33
47 -46 53 -32 14 -91 13 -126 -3z m143 -45 c43 -44 40 -83 -13 -135 -25 -25
-43 -36 -45 -28 -3 6 -17 12 -32 12 -35 0 -65 53 -59 104 3 28 1 33 -9 24 -14
-11 -18 -88 -5 -88 5 0 14 -12 21 -27 l12 -26 -33 25 c-25 19 -34 34 -36 62
-2 20 1 36 7 36 5 0 12 8 15 18 8 25 63 51 109 51 30 1 45 -6 68 -28z"/>
<path d="M3725 6649 c-34 -10 -64 -45 -65 -75 0 -16 -15 -27 -67 -49 -84 -35
-95 -47 -86 -98 l6 -40 -154 8 c-221 13 -292 12 -296 -2 -8 -22 169 -33 361
-23 85 4 88 3 101 -20 12 -22 10 -27 -34 -66 -25 -23 -43 -45 -39 -49 6 -7 89
51 96 67 2 4 19 -3 38 -14 24 -14 54 -21 92 -22 l57 -1 20 58 20 58 45 -5 c25
-3 73 -8 106 -12 l62 -6 6 -51 c3 -29 5 -153 5 -277 -1 -274 15 -499 46 -652
5 -25 2 -28 -32 -34 -20 -4 -71 -2 -112 4 -103 15 -728 26 -736 12 -6 -10 430
-18 605 -11 63 2 73 1 62 -11 -19 -19 -713 -26 -729 -6 -16 20 -31 92 -49 234
-13 104 -15 180 -10 399 4 149 9 295 11 325 4 50 4 51 -4 15 -14 -62 -36 -504
-33 -650 3 -173 17 -284 41 -315 17 -24 24 -25 172 -33 210 -11 837 -1 855 14
13 11 10 57 -7 91 -21 40 -66 605 -70 871 l-2 107 -113 0 c-91 0 -114 3 -114
14 0 8 11 17 25 20 53 13 82 105 51 164 -29 55 -75 77 -131 61z m95 -41 c11
-18 20 -49 20 -69 0 -33 -3 -37 -32 -44 -18 -3 -48 -8 -66 -9 -38 -4 -52 -14
-33 -25 18 -12 5 -32 -16 -24 -12 5 -15 2 -11 -8 5 -12 -1 -14 -23 -11 -24 3
-29 9 -29 31 0 15 5 39 12 53 l12 25 19 -21 18 -21 -6 23 c-4 12 -4 36 0 52
18 82 97 110 135 48z"/>
<path d="M2016 6572 c-24 -46 -37 -118 -30 -163 9 -54 18 -41 16 24 -1 30 6
75 17 107 22 62 20 77 -3 32z"/>
<path d="M1844 6475 c-14 -76 37 -224 99 -286 42 -42 55 -35 17 8 -55 62 -91
152 -94 233 -3 81 -12 98 -22 45z"/>
<path d="M2523 6425 c0 -22 2 -30 4 -17 2 12 2 30 0 40 -3 9 -5 -1 -4 -23z"/>
<path d="M2030 6283 c0 -19 22 -63 32 -63 13 0 10 13 -12 45 -11 17 -20 25
-20 18z"/>
<path d="M1190 6246 c-62 -25 -207 -104 -214 -115 -3 -4 6 -31 20 -60 13 -29
24 -58 24 -65 0 -6 -17 -34 -38 -62 -21 -28 -46 -71 -55 -95 l-17 -44 -73 3
c-54 3 -76 0 -85 -10 -14 -17 -35 -186 -30 -243 l3 -40 76 -3 77 -3 11 -58 c6
-32 25 -79 41 -105 17 -26 30 -50 30 -53 0 -4 -18 -33 -40 -64 -22 -32 -40
-64 -40 -73 0 -21 106 -143 140 -161 58 -30 89 -21 156 46 56 55 64 60 83 49
28 -14 117 -15 155 0 16 6 30 9 30 8 1 -2 7 -30 14 -62 12 -59 34 -96 58 -96
33 0 286 94 292 109 3 8 -9 42 -26 74 l-33 59 45 48 c51 54 71 91 81 144 7 36
9 38 39 31 17 -3 54 -9 83 -12 l51 -6 6 44 c2 24 10 90 17 146 16 135 14 138
-97 130 l-81 -6 -24 52 c-13 29 -39 68 -56 88 l-33 36 50 74 c27 41 50 82 50
91 0 26 -158 138 -196 138 -11 0 -40 -24 -65 -52 l-47 -53 -38 19 c-23 12 -71
22 -118 25 l-79 6 -13 46 c-13 43 -53 100 -71 99 -4 -1 -33 -11 -63 -24z m70
-26 c0 -5 -6 -10 -14 -10 -19 0 -31 -19 -20 -30 5 -5 23 -11 39 -13 29 -4 34
-10 51 -75 3 -9 12 -10 31 -5 52 15 116 7 171 -21 28 -14 52 -31 52 -36 0 -14
-13 -12 -46 4 -15 8 -32 12 -38 8 -6 -4 -2 -8 10 -10 12 -2 39 -19 60 -38 22
-20 33 -33 27 -29 -18 9 -16 -25 2 -46 15 -15 11 -15 -41 2 -65 22 -115 24
-199 8 -68 -12 -95 -25 -158 -73 l-45 -34 -20 23 c-11 13 -34 26 -51 30 -17 4
-31 12 -31 19 0 9 -9 12 -27 8 -27 -4 -27 -3 16 41 37 39 43 49 37 73 -4 15
-18 41 -32 57 -13 16 -24 34 -24 40 0 7 53 36 118 64 126 56 132 58 132 43z
m474 -82 c18 -13 50 -38 70 -56 37 -32 37 -33 21 -58 l-17 -26 -15 21 c-19 28
-91 74 -103 66 -5 -3 -13 3 -19 12 -9 17 -10 17 -16 1 -4 -10 -11 -18 -16 -18
-5 0 1 18 13 40 27 46 37 48 82 18z m-183 -260 c77 -45 114 -95 129 -173 19
-99 8 -202 -26 -266 -68 -124 -210 -182 -352 -144 -58 16 -75 26 -128 79 -72
72 -91 126 -80 233 12 114 56 202 131 259 47 36 83 43 190 41 78 -2 98 -7 136
-29z m163 10 c7 -22 7 -22 16 -3 8 18 9 18 9 2 1 -10 15 -30 32 -44 36 -30 75
-90 85 -127 9 -39 37 -49 110 -41 l64 7 -1 -29 c0 -29 -17 -78 -18 -54 -1 11
-4 11 -17 0 -27 -22 -54 -87 -54 -129 0 -40 0 -40 -38 -40 -38 0 -39 -1 -55
-54 -17 -54 -79 -131 -136 -169 l-24 -16 37 -55 c56 -84 57 -80 -31 -108 -43
-14 -79 -24 -81 -23 -1 1 2 15 8 30 9 23 8 30 -4 37 -8 5 -12 16 -9 28 4 17 0
20 -25 20 -19 0 -35 7 -40 17 -6 10 -26 18 -53 20 -45 3 -67 13 -30 13 12 0
19 4 16 10 -4 6 -37 9 -83 6 -46 -2 -59 -1 -32 3 30 4 46 11 48 22 2 13 -8 18
-47 23 -51 7 -157 56 -177 81 -6 8 -15 11 -19 7 -5 -4 -5 -2 -2 4 6 10 -33 64
-46 64 -4 0 7 -23 24 -51 23 -40 27 -54 18 -65 -18 -21 -27 -17 -34 16 -6 27
-15 34 -37 31 -8 -1 -51 89 -67 141 -9 27 -9 43 -1 58 18 33 35 23 62 -37 39
-89 111 -169 188 -206 55 -27 76 -32 135 -31 97 0 148 17 196 65 79 79 114
195 107 349 -5 98 -16 133 -64 196 -31 40 -30 47 6 42 17 -3 33 -1 36 4 9 15
22 8 28 -14z m-694 -158 c0 -5 -4 -10 -10 -10 -5 0 -10 5 -10 10 0 6 5 10 10
10 6 0 10 -4 10 -10z m37 -112 c-2 -13 -4 -5 -4 17 -1 22 1 32 4 23 2 -10 2
-28 0 -40z m0 -60 c-3 -8 -6 -5 -6 6 -1 11 2 17 5 13 3 -3 4 -12 1 -19z m953
-128 c0 -5 -5 -10 -11 -10 -5 0 -7 5 -4 10 3 6 8 10 11 10 2 0 4 -4 4 -10z
m-978 -49 c8 12 9 12 5 -1 -2 -8 2 -21 10 -28 21 -21 16 -45 -7 -39 -17 4 -20
2 -15 -13 8 -24 -14 -70 -34 -70 -13 0 -13 2 1 13 19 14 34 57 20 57 -6 0 -13
7 -16 16 -3 8 -2 12 4 9 6 -3 10 -1 10 6 0 10 3 10 12 1 23 -23 29 -12 9 17
-12 16 -20 40 -20 53 2 18 3 17 6 -6 4 -23 7 -26 15 -15z m198 -141 c0 -5 -5
-10 -11 -10 -5 0 -7 5 -4 10 3 6 8 10 11 10 2 0 4 -4 4 -10z m-29 -17 c13 -15
12 -15 -8 -4 -24 12 -29 21 -14 21 5 0 15 -7 22 -17z m-247 -78 c14 -14 22
-25 19 -25 -4 0 3 -9 15 -20 12 -11 32 -20 46 -20 16 0 27 -7 31 -19 4 -12 12
-18 21 -14 9 3 14 -2 14 -17 0 -19 -4 -21 -27 -15 -51 12 -153 104 -153 138 0
23 4 22 34 -8z"/>
<path d="M1085 6061 c14 -29 35 -49 35 -36 0 13 -34 65 -42 65 -5 0 -2 -13 7
-29z"/>
<path d="M1299 5835 c-89 -46 -159 -152 -159 -240 0 -25 9 -68 20 -98 84 -224
405 -184 476 60 28 96 -1 206 -68 257 -65 49 -195 59 -269 21z m202 -15 c26
-14 52 -40 77 -78 33 -51 37 -64 37 -122 0 -79 -31 -146 -90 -197 -57 -49 -74
-50 -147 -11 -57 30 -64 37 -73 75 -6 23 -13 45 -18 49 -4 4 -7 12 -7 18 0 6
5 5 12 -2 19 -19 54 -15 55 7 1 13 -9 23 -30 32 -32 13 -97 74 -97 90 0 5 -7
9 -15 9 -19 0 -19 4 -1 38 17 33 61 74 101 95 44 24 146 22 196 -3z m-217
-235 c3 -8 1 -15 -4 -15 -6 0 -10 7 -10 15 0 8 2 15 4 15 2 0 6 -7 10 -15z"/>
<path d="M1803 5409 c-18 -24 -45 -81 -39 -86 7 -7 58 76 54 89 -2 6 -8 5 -15
-3z"/>
<path d="M1990 6255 c0 -9 9 -15 23 -14 17 1 18 2 4 6 -9 2 -15 9 -12 14 4 5
1 9 -4 9 -6 0 -11 -7 -11 -15z"/>
<path d="M1960 6229 c0 -5 5 -7 10 -4 6 3 10 8 10 11 0 2 -4 4 -10 4 -5 0 -10
-5 -10 -11z"/>
<path d="M3082 6210 c0 -14 2 -19 5 -12 2 6 2 18 0 25 -3 6 -5 1 -5 -13z"/>
<path d="M1909 6182 c13 -24 51 -58 51 -45 0 6 -9 22 -21 37 -23 30 -45 36
-30 8z"/>
<path d="M3081 6154 c0 -11 3 -14 6 -6 3 7 2 16 -1 19 -3 4 -6 -2 -5 -13z"/>
<path d="M3130 6145 c7 -8 16 -12 21 -9 13 8 1 24 -18 24 -13 0 -13 -3 -3 -15z"/>
<path d="M2060 6110 c0 -5 4 -10 9 -10 5 0 18 -3 28 -6 16 -5 16 -4 -1 10 -23
18 -36 20 -36 6z"/>
<path d="M3148 6061 c-10 -82 -10 -442 0 -457 4 -6 21 -11 37 -11 17 0 46 0
65 -1 19 -1 100 0 180 3 80 2 212 5 293 6 129 2 148 4 145 18 -2 12 -14 15
-50 12 -35 -2 -49 2 -56 14 -8 16 -10 16 -15 1 -5 -12 -20 -16 -62 -16 -30 0
-55 4 -55 10 0 5 7 7 15 4 14 -6 19 14 18 63 -1 7 3 10 8 7 5 -3 9 2 9 10 0 9
-4 16 -9 16 -4 0 -11 30 -14 68 -4 37 -11 109 -17 161 -6 52 -7 103 -4 114 4
14 -13 6 -68 -31 -114 -77 -182 -134 -169 -141 7 -5 8 -21 2 -51 -5 -25 -9
-35 -10 -22 -2 36 -21 15 -21 -24 0 -27 -4 -34 -20 -34 -11 0 -20 -4 -20 -9 0
-4 -12 -6 -26 -3 -18 3 -24 10 -21 22 2 9 1 24 -4 32 -4 8 -13 43 -18 77 -11
68 -31 94 -68 88 -24 -4 -30 11 -35 98 -3 34 -4 30 -10 -24z m467 -168 c-5
-37 -10 -43 -30 -43 -13 0 -32 11 -43 25 -11 13 -22 21 -26 18 -3 -3 -6 -1 -6
5 0 5 -3 17 -6 26 -4 10 -1 16 9 16 8 0 17 -5 19 -11 2 -6 15 -9 28 -7 21 3
19 6 -19 18 -38 12 -45 12 -55 -1 -6 -9 -16 -14 -23 -12 -6 2 -14 -1 -18 -6
-3 -6 -12 -11 -18 -11 -7 0 8 13 33 29 25 16 70 51 100 79 l55 50 3 -67 c2
-36 0 -85 -3 -108z m-182 -243 l21 -17 -22 -7 c-32 -10 -39 -2 -33 41 3 23 6
30 9 19 2 -11 14 -27 25 -36z"/>
<path d="M3081 6094 c0 -11 3 -14 6 -6 3 7 2 16 -1 19 -3 4 -6 -2 -5 -13z"/>
<path d="M3660 6071 c0 -17 67 -136 85 -151 15 -13 21 -50 8 -50 -10 0 -4
-183 6 -193 12 -12 24 112 17 165 -6 41 -4 45 43 95 30 32 51 48 54 40 7 -16
28 12 24 33 -3 15 -33 17 -67 4 -12 -4 -12 -7 -1 -14 11 -6 10 -13 -7 -37 -40
-57 -48 -58 -71 -11 -24 50 -91 137 -91 119z"/>
<path d="M3221 6013 c18 -21 42 -45 53 -53 23 -16 27 -19 71 -55 16 -13 31
-22 33 -20 10 9 -161 165 -181 165 -5 0 6 -17 24 -37z"/>
<path d="M3068 5987 c-5 -46 -2 -60 13 -52 12 8 12 82 0 89 -5 3 -11 -13 -13
-37z"/>
<path d="M2543 5858 c-6 -7 -13 -30 -17 -50 -6 -34 -10 -38 -36 -38 -24 0 -30
6 -40 34 -16 49 -31 59 -84 51 -66 -10 -79 -23 -64 -61 11 -30 9 -34 -18 -57
l-29 -26 -27 30 c-15 16 -29 29 -32 29 -3 0 -24 -23 -46 -51 -42 -53 -42 -68
-3 -107 28 -28 11 -90 -26 -94 -25 -3 -26 -6 -26 -63 l0 -60 36 -3 c27 -2 39
-9 48 -28 9 -21 8 -30 -9 -51 -26 -33 -25 -41 5 -86 31 -45 73 -50 108 -14 17
17 29 22 51 17 28 -5 29 -8 30 -55 l1 -50 60 -3 c32 -2 70 0 83 3 21 5 24 10
19 38 -3 18 -8 40 -12 49 -5 12 3 21 30 34 l36 17 28 -34 28 -33 40 18 c22 9
53 28 69 41 l29 24 -37 38 c-41 41 -51 71 -20 58 67 -29 85 -16 96 71 7 57 -8
81 -44 71 -14 -3 -24 1 -31 15 -13 23 -8 29 34 43 40 13 45 39 18 100 -23 51
-43 57 -85 24 l-28 -22 -20 20 c-17 18 -18 25 -9 59 15 55 14 60 -17 83 -39
27 -76 35 -89 19z m-136 -24 c-3 -3 -12 -4 -19 -1 -8 3 -5 6 6 6 11 1 17 -2
13 -5z m-44 -11 c-7 -2 -21 -2 -30 0 -10 3 -4 5 12 5 17 0 24 -2 18 -5z m402
-163 c8 -16 15 -37 15 -47 -1 -29 -40 24 -40 53 0 32 6 30 25 -6z m-413 -71
c5 -3 2 -12 -6 -19 -13 -10 -17 -9 -22 4 -3 9 -3 24 1 34 6 14 8 15 13 2 3 -8
9 -18 14 -21z m164 -13 c28 -28 34 -42 34 -76 0 -122 -150 -160 -195 -48 -32
80 11 158 87 158 32 0 47 -7 74 -34z m144 23 c0 -4 -6 -9 -12 -12 -10 -3 -10
-9 0 -26 14 -24 16 -61 3 -61 -5 0 -12 6 -14 13 -4 7 -8 3 -12 -10 -7 -23 -25
-32 -25 -12 0 5 -4 8 -9 5 -5 -3 -11 6 -14 21 -5 25 -4 26 8 9 13 -17 14 -17
25 4 9 17 9 21 0 15 -9 -5 -10 -1 -5 16 4 13 11 29 16 35 10 12 39 15 39 3z"/>
<path d="M3715 5800 c-4 -16 -11 -32 -16 -35 -5 -4 -9 -23 -9 -43 l0 -36 20
20 c14 13 22 37 24 72 4 56 -8 71 -19 22z"/>
<path d="M3084 5690 c0 -58 1 -81 3 -52 2 28 2 76 0 105 -2 28 -3 5 -3 -53z"/>
<path d="M4175 5627 c79 -79 105 -144 113 -276 5 -105 -5 -114 -38 -35 -11 25
-26 44 -35 44 -22 0 -19 -12 26 -103 57 -113 76 -123 109 -58 24 48 39 151 21
151 -7 0 -20 -17 -29 -37 l-16 -38 -3 30 c-10 96 -28 170 -54 227 -35 73 -69
112 -120 138 -33 17 -30 13 26 -43z"/>
<path d="M3237 5540 c-9 -11 -16 -20 -14 -21 19 -5 68 -5 71 0 6 8 45 6 69 -4
10 -4 24 -2 32 5 12 10 18 10 29 1 11 -9 20 -10 36 -1 23 12 18 33 -5 23 -9
-3 -22 0 -30 7 -12 10 -18 10 -30 0 -11 -9 -19 -10 -28 -1 -10 8 -17 7 -26 -2
-9 -9 -14 -9 -21 3 -7 12 -12 11 -29 -4 -19 -17 -21 -17 -21 -3 0 23 -12 21
-33 -3z"/>
<path d="M1255 4957 c-6 -42 -4 -81 12 -162 l5 -30 -24 23 c-22 20 -58 30 -58
16 0 -15 114 -134 129 -134 11 0 26 28 49 95 18 52 30 100 27 106 -11 17 -42
-18 -61 -67 -29 -76 -40 -58 -55 90 -6 55 -12 102 -14 104 -2 2 -7 -16 -10
-41z"/>
<path d="M1558 4615 c-2 -3 -25 -9 -49 -14 -360 -72 -752 -165 -787 -187 -19
-12 -21 -18 -11 -35 17 -32 67 -207 79 -279 16 -94 85 -400 129 -580 22 -85
44 -184 51 -220 24 -138 64 -292 78 -307 19 -18 55 -13 227 34 72 20 171 44
220 53 50 10 168 37 263 60 l174 43 -7 31 c-3 17 -12 72 -20 121 -8 50 -23
137 -35 195 -11 58 -32 164 -45 235 -13 72 -38 191 -55 265 -17 74 -39 176
-50 227 -25 120 -86 331 -101 349 -11 13 -50 19 -61 9z m50 -131 c68 -202 123
-422 196 -779 48 -236 59 -319 39 -320 -6 0 -15 -3 -19 -7 -4 -5 -14 -8 -23
-8 -21 -1 -62 -32 -64 -50 -3 -20 -16 -40 -27 -40 -14 0 -21 33 -8 41 7 4 9
12 4 16 -11 11 -46 -35 -39 -52 3 -10 -1 -15 -12 -15 -9 0 -14 4 -11 8 2 4 2
13 -2 19 -5 8 -19 6 -47 -7 -39 -18 -40 -18 -60 1 -38 34 -76 34 -120 -1 -46
-37 -59 -63 -50 -107 8 -42 -18 -57 -80 -47 -48 7 -59 20 -22 27 16 3 14 5 -9
6 -17 0 -37 -5 -43 -13 -9 -11 -19 -12 -45 -4 -26 8 -38 21 -56 62 -13 28 -25
54 -28 59 -2 4 17 7 43 7 25 0 65 4 88 10 23 5 96 21 162 35 228 48 340 78
373 98 31 18 33 22 27 57 -4 21 -2 41 3 44 6 3 8 15 5 25 -3 10 1 22 7 26 8 5
2 12 -17 20 -21 9 -32 22 -36 41 -2 16 -14 63 -25 104 -18 67 -30 126 -61 295
-23 127 -122 455 -138 455 -32 0 -468 -101 -519 -120 -14 -6 -38 -12 -55 -15
-24 -4 -29 -2 -29 14 0 11 4 23 10 26 6 3 10 14 10 24 0 14 26 26 118 55 64
20 126 36 137 36 11 0 43 7 70 15 28 9 104 24 169 35 65 11 121 22 124 25 15
15 30 -10 60 -101z m-85 -65 c4 -24 12 -53 17 -64 5 -11 16 -58 25 -104 9 -46
27 -118 40 -160 13 -42 33 -114 44 -161 32 -133 91 -474 83 -482 -12 -12 -206
-63 -352 -93 -74 -15 -157 -34 -184 -41 -67 -19 -94 -18 -100 4 -3 9 -19 78
-35 152 -17 74 -42 176 -56 225 -72 245 -86 296 -101 365 -9 41 -16 88 -16
103 1 15 -8 53 -19 84 -24 70 -24 73 1 73 10 0 99 20 197 44 98 25 196 48 218
52 64 10 197 43 203 49 14 13 27 -5 35 -46z m-464 -1059 c0 -10 -3 -8 -9 5
-12 27 -12 43 0 25 5 -8 9 -22 9 -30z m756 -20 c-3 -5 -10 -10 -16 -10 -5 0
-9 5 -9 10 0 6 7 10 16 10 8 0 12 -4 9 -10z m-205 -85 c0 -9 -9 -15 -25 -15
-16 0 -25 6 -25 15 0 9 9 15 25 15 16 0 25 -6 25 -15z m-383 -131 c-3 -3 -12
-4 -19 -1 -8 3 -5 6 6 6 11 1 17 -2 13 -5z"/>
<path d="M1227 4278 c-23 -6 -59 -31 -95 -67 -48 -47 -61 -68 -75 -117 -20
-73 -22 -163 -4 -207 17 -40 87 -104 135 -124 51 -21 147 -19 203 5 88 38 143
140 141 259 -1 79 -25 163 -54 190 -61 56 -172 83 -251 61z m131 -28 c81 -19
121 -65 148 -167 24 -94 0 -163 -58 -163 -25 0 -29 14 -17 50 10 27 9 36 -9
60 -18 23 -20 34 -12 61 15 50 13 57 -22 75 l-31 16 24 19 c30 23 12 25 -20 2
l-24 -16 33 -27 33 -27 -21 -35 c-28 -46 -28 -62 4 -83 22 -14 25 -21 19 -55
-6 -34 -3 -41 19 -55 14 -10 33 -15 41 -11 12 4 13 2 6 -12 -35 -65 -170 -124
-200 -88 -8 9 -19 16 -25 16 -6 0 -16 8 -22 18 -10 15 -7 17 33 13 78 -6 94
33 43 108 -17 24 -30 47 -30 51 0 3 11 21 25 40 14 19 25 39 25 46 0 20 -30
44 -55 44 -26 0 -65 42 -65 71 0 51 63 71 158 49z m-175 -40 c-8 -29 23 -69
65 -87 20 -8 39 -17 41 -19 2 -2 -8 -19 -23 -38 -34 -45 -33 -61 9 -120 19
-27 35 -55 35 -63 0 -17 -27 -17 -33 0 -3 8 -10 9 -23 2 -16 -8 -27 -2 -66 35
l-48 46 26 36 c29 41 24 62 -21 92 -25 16 -31 39 -19 70 3 9 11 13 17 9 6 -3
7 -1 3 5 -4 6 2 20 14 32 25 25 29 25 23 0z m-1 -307 c24 -28 29 -41 19 -47
-5 -3 -15 2 -22 11 -12 14 -12 16 0 9 9 -6 12 -4 9 5 -3 8 -11 14 -18 14 -7 0
-15 6 -17 13 -7 18 12 15 29 -5z"/>
<path d="M1565 3693 c-14 -81 -28 -96 -38 -43 -10 47 -31 38 -24 -11 4 -33 2
-40 -10 -37 -9 2 -22 19 -29 38 l-12 35 -1 -33 c-2 -56 13 -71 67 -70 26 0 53
5 60 10 7 7 12 36 12 79 0 74 -15 93 -25 32z"/>
<path d="M1400 3653 c0 -38 -10 -73 -21 -73 -5 0 -15 12 -21 28 l-11 27 -6
-29 c-8 -37 -25 -43 -39 -14 l-11 23 0 -22 c-1 -31 36 -68 53 -54 7 6 25 9 42
8 l29 -2 3 68 c2 42 -1 67 -8 67 -5 0 -10 -12 -10 -27z"/>
<path d="M1252 3617 c-6 -16 -12 -35 -12 -43 0 -8 -4 -14 -10 -14 -5 0 -10 11
-10 25 0 37 -18 30 -26 -10 -8 -43 -16 -44 -37 -2 l-18 32 6 -30 c4 -16 13
-40 21 -52 15 -24 34 -31 34 -12 0 7 10 9 25 5 32 -8 47 20 43 82 -3 47 -4 47
-16 19z"/>
<path d="M6177 4488 c-12 -10 -24 -62 -47 -208 -17 -107 -42 -262 -55 -345
-14 -82 -31 -204 -39 -271 -8 -66 -22 -148 -30 -181 -20 -76 -82 -518 -91
-643 -3 -52 -10 -122 -16 -155 -5 -33 -13 -118 -18 -190 -13 -174 -49 -477
-66 -543 -10 -40 -11 -54 -2 -57 100 -28 423 -43 446 -20 6 6 18 96 26 200 9
105 31 278 50 385 32 181 62 361 150 905 19 116 55 316 80 445 40 209 82 444
99 568 6 39 4 43 -21 53 -16 6 -82 15 -147 20 -66 5 -145 16 -175 23 -97 24
-126 27 -144 14z m147 -40 c14 -8 17 -17 12 -41 -4 -18 -13 -84 -22 -147 -16
-129 -39 -257 -84 -470 -57 -272 -121 -635 -141 -800 -21 -181 -46 -346 -108
-730 -11 -69 -23 -156 -26 -195 -3 -38 -8 -88 -11 -110 l-4 -40 -50 3 c-58 4
-56 0 -35 117 8 44 15 99 15 122 l0 41 43 -4 42 -4 -40 13 c-38 12 -40 15 -37
47 2 19 7 36 11 38 4 1 6 15 4 30 -2 15 0 61 4 102 l8 75 39 -3 c26 -3 36 0
32 7 -4 6 -20 11 -37 11 -27 0 -29 3 -29 37 0 47 20 166 30 176 4 5 17 3 27
-4 11 -7 28 -9 37 -6 26 10 18 24 -11 20 -45 -6 -57 8 -49 61 l7 46 42 -5 42
-5 -44 11 c-41 10 -43 12 -37 41 3 17 6 37 6 45 0 11 8 12 35 7 23 -4 35 -2
35 5 0 6 -14 11 -31 11 -30 0 -30 1 -27 48 3 49 4 50 62 40 10 -2 21 3 24 11
3 10 0 12 -12 8 -9 -4 -28 -2 -42 3 -23 9 -26 14 -20 43 4 17 9 61 12 97 3 36
8 68 10 72 3 5 18 1 34 -7 34 -17 40 -18 40 -6 0 5 -14 12 -31 16 -17 4 -33
14 -36 22 -5 13 4 106 27 283 6 41 11 86 12 100 0 14 7 61 15 105 7 44 16 94
18 110 3 17 9 46 14 65 10 38 26 120 36 188 7 46 9 48 45 27 29 -17 40 -18 40
-6 0 5 -13 12 -30 16 -16 4 -32 11 -36 16 -4 8 37 216 51 258 4 10 17 12 53 6
26 -4 55 -11 66 -17z m216 -48 c36 -7 73 -13 83 -13 13 -1 17 -10 17 -45 0
-25 -4 -61 -9 -81 -6 -20 -20 -81 -32 -136 -24 -110 -47 -196 -48 -178 -1 6
-10 9 -21 6 -17 -4 -20 -14 -20 -54 0 -60 -18 -147 -37 -175 -7 -12 -11 -28
-8 -36 4 -9 0 -22 -7 -29 -21 -23 -20 -39 2 -39 24 0 25 13 -5 -150 -14 -74
-43 -241 -65 -370 -23 -129 -47 -266 -55 -305 -7 -38 -16 -88 -20 -110 -4 -22
-10 -44 -15 -50 -4 -5 -13 -28 -20 -50 -7 -22 -21 -51 -31 -65 -9 -14 -25 -56
-35 -93 -14 -51 -22 -67 -36 -67 -10 0 -38 -5 -63 -12 -35 -10 -47 -18 -55
-41 -7 -21 -7 -34 1 -43 6 -8 9 -24 5 -38 -3 -13 -6 -89 -7 -170 -1 -102 -5
-146 -13 -147 -25 -2 -71 3 -78 9 -3 4 -3 25 2 47 5 27 8 32 9 15 2 -40 19 -5
26 55 3 27 10 73 15 100 10 56 16 94 30 210 5 44 17 118 25 165 17 96 20 154
6 130 -9 -16 -17 -69 -51 -330 -12 -85 -27 -182 -34 -215 -24 -106 -21 -67 34
365 11 91 36 262 56 380 19 118 44 271 55 340 11 69 27 159 36 200 9 41 30
152 48 245 23 127 34 169 45 167 7 -2 17 3 22 10 6 8 7 3 3 -16 -3 -16 -15
-79 -26 -140 -11 -61 -26 -135 -35 -164 -19 -69 -59 -266 -74 -367 -6 -44 -13
-88 -16 -97 -3 -10 -1 -18 4 -18 6 0 16 33 22 73 7 39 28 144 47 232 19 88 47
219 62 290 21 100 30 129 42 126 48 -14 69 -12 97 9 17 12 35 19 41 16 6 -4
11 -3 11 3 0 5 -5 13 -10 16 -6 4 -7 13 -2 20 10 19 3 95 -9 95 -5 0 -9 -6 -9
-14 0 -7 -7 -19 -15 -26 -9 -7 -13 -15 -11 -18 3 -2 -2 -11 -10 -19 -8 -8 -12
-19 -9 -24 4 -5 -10 -9 -29 -9 -23 0 -39 -6 -46 -17 -11 -19 -8 3 11 77 11 43
12 96 2 86 -5 -4 -13 -26 -20 -49 l-11 -42 -2 40 c-2 25 -4 31 -7 18 -2 -13
-8 -23 -13 -23 -9 0 -5 38 10 95 4 17 14 64 21 105 14 73 14 74 20 35 6 -38 6
-38 8 -7 1 25 5 32 22 32 18 0 20 5 17 42 -3 43 -23 63 -31 31 -3 -13 -5 -10
-6 8 -1 26 34 203 43 218 3 5 25 5 48 0 24 -4 72 -13 108 -19z m-18 -611 c-11
-46 -23 -101 -26 -123 -4 -21 -9 -36 -11 -34 -6 6 24 176 37 215 20 56 20 28
0 -58z"/>
<path d="M6217 4359 c12 -12 25 -20 28 -17 3 3 -7 13 -22 23 l-28 17 22 -23z"/>
<path d="M6200 4280 c8 -5 20 -10 25 -10 6 0 3 5 -5 10 -8 5 -19 10 -25 10 -5
0 -3 -5 5 -10z"/>
<path d="M6163 4083 c9 -2 23 -2 30 0 6 3 -1 5 -18 5 -16 0 -22 -2 -12 -5z"/>
<path d="M6130 3970 c8 -5 22 -9 30 -9 10 0 8 3 -5 9 -27 12 -43 12 -25 0z"/>
<path d="M6110 3860 c20 -13 47 -13 55 0 4 6 -9 10 -32 10 -28 0 -34 -3 -23
-10z"/>
<path d="M6091 3776 c2 -2 15 -9 29 -15 24 -11 24 -11 6 3 -16 13 -49 24 -35
12z"/>
<path d="M6100 3666 c14 -8 27 -12 29 -10 6 6 -1 11 -29 18 l-25 7 25 -15z"/>
<path d="M6070 3565 c13 -15 48 -26 54 -16 3 4 -11 11 -30 17 -27 9 -32 8 -24
-1z"/>
<path d="M6070 3470 c20 -13 43 -13 35 0 -3 6 -16 10 -28 10 -18 0 -19 -2 -7
-10z"/>
<path d="M6050 3375 c33 -19 50 -18 26 0 -11 8 -27 15 -35 15 -10 -1 -7 -6 9
-15z"/>
<path d="M6030 3150 c19 -13 30 -13 30 0 0 6 -10 10 -22 10 -19 0 -20 -2 -8
-10z"/>
<path d="M5949 2609 c16 -6 28 -6 35 1 7 7 -1 10 -24 9 -33 0 -34 -1 -11 -10z"/>
<path d="M5924 2396 c22 -18 56 -21 56 -6 0 6 -6 10 -12 10 -7 0 -24 3 -38 6
-24 5 -24 5 -6 -10z"/>
<path d="M5925 2290 c-19 -8 -19 -9 2 -9 12 -1 25 4 28 9 7 12 -2 12 -30 0z"/>
<path d="M5893 2093 c9 -2 23 -2 30 0 6 3 -1 5 -18 5 -16 0 -22 -2 -12 -5z"/>
<path d="M5880 2020 c20 -13 33 -13 25 0 -3 6 -14 10 -23 10 -15 0 -15 -2 -2
-10z"/>
<path d="M6368 4104 c-5 -4 -8 -21 -7 -38 0 -30 0 -30 10 -7 11 27 8 57 -3 45z"/>
<path d="M6522 4008 c3 -7 13 -15 22 -16 12 -3 17 1 14 10 -3 7 -13 15 -22 16
-12 3 -17 -1 -14 -10z"/>
<path d="M6340 3804 c0 -17 22 -14 28 4 2 7 -3 12 -12 12 -9 0 -16 -7 -16 -16z"/>
<path d="M6112 2820 c0 -19 2 -27 5 -17 2 9 2 25 0 35 -3 9 -5 1 -5 -18z"/>
<path d="M5807 4395 c-16 -8 -42 -26 -59 -40 -25 -21 -27 -26 -13 -31 9 -4 28
-1 42 5 62 28 49 -31 -39 -178 -76 -125 -139 -198 -193 -222 -24 -11 -32 -19
-21 -19 37 0 106 42 144 88 66 80 166 239 184 294 4 11 8 11 20 0 21 -17 29
-4 31 47 2 66 -35 88 -96 56z"/>
<path d="M725 3212 c-26 -28 -82 -159 -72 -169 10 -9 27 7 46 45 l20 37 -6
-90 c-6 -104 14 -243 54 -370 33 -104 79 -195 99 -195 9 0 14 3 12 8 -61 120
-83 174 -105 257 -22 84 -27 122 -27 237 -1 154 9 185 39 118 38 -84 67 -79
40 7 -44 143 -59 160 -100 115z"/>
<path d="M1585 3035 c3 -16 21 -57 39 -90 41 -76 100 -119 192 -142 38 -10 71
-18 73 -20 1 -1 -4 -12 -13 -25 -22 -31 -21 -68 2 -67 25 0 85 97 77 126 -9
36 -155 128 -155 97 0 -3 14 -23 32 -45 17 -21 29 -41 27 -43 -3 -3 -25 0 -49
5 -84 19 -139 66 -196 170 -24 44 -33 55 -29 34z"/>
<path d="M1282 2475 c-150 -35 -248 -113 -316 -254 -39 -81 -41 -91 -41 -176
0 -76 5 -104 33 -179 39 -111 85 -188 136 -232 42 -36 204 -124 230 -124 8 0
24 -10 35 -21 27 -29 85 -142 105 -205 22 -66 61 -102 141 -129 79 -27 128
-20 185 25 29 23 41 43 54 88 22 80 20 123 -8 190 -13 31 -32 83 -41 114 -16
57 -16 58 8 90 62 83 105 265 92 383 -21 193 -59 278 -157 356 -88 70 -125 82
-268 85 -83 2 -146 -2 -188 -11z m271 -31 c94 -24 204 -100 248 -171 22 -36
45 -117 54 -189 3 -27 8 -63 11 -81 6 -40 -11 -149 -37 -229 -14 -45 -32 -73
-66 -107 -26 -26 -52 -47 -58 -47 -9 0 -86 293 -85 327 0 6 10 28 21 48 41 69
19 187 -37 201 -14 4 -30 2 -36 -4 -21 -21 -21 -104 0 -165 l19 -58 -21 -14
c-23 -17 -113 -20 -136 -5 -8 5 -22 41 -30 81 -16 78 -36 103 -67 83 -10 -6
-19 -23 -21 -37 -3 -28 27 -95 52 -116 22 -18 20 -43 -5 -75 l-21 -27 -38 54
c-44 61 -99 107 -129 107 -24 0 -61 -45 -61 -75 0 -30 53 -101 89 -120 17 -8
51 -15 76 -15 l46 0 29 -64 c16 -35 31 -70 32 -77 2 -7 11 -21 21 -31 10 -11
16 -22 13 -25 -3 -3 -13 4 -23 16 -17 21 -20 21 -66 7 -26 -8 -49 -10 -53 -5
-3 5 -24 9 -48 9 -32 0 -50 7 -74 28 -18 16 -32 34 -32 40 0 7 -8 12 -17 12
-14 0 -15 2 -4 9 8 5 9 11 3 15 -6 3 -13 3 -16 -2 -9 -15 6 -51 23 -57 9 -3
17 -14 17 -24 0 -24 -13 -17 -53 29 -42 49 -69 105 -93 196 -34 130 -23 230
40 355 58 114 149 184 272 208 71 14 196 12 261 -5z m87 -308 c12 -38 2 -96
-23 -130 -13 -17 -15 -16 -30 23 -19 47 -22 113 -7 142 15 27 45 9 60 -35z
m-262 -81 c7 -22 11 -48 10 -60 -3 -17 -7 -15 -26 15 -24 38 -30 94 -9 88 6
-3 18 -22 25 -43z m-172 -84 c31 -19 94 -104 94 -128 0 -21 -57 -15 -99 11
-43 27 -66 73 -57 111 8 30 21 31 62 6z m403 -64 c11 -27 39 -211 43 -275 3
-44 3 -44 -42 -62 -25 -9 -61 -20 -80 -23 l-35 -7 -73 150 -72 151 22 39 23
39 70 -5 c39 -3 81 -1 95 4 36 15 40 14 49 -11z m151 -337 c0 -16 14 -70 30
-120 38 -116 38 -131 -4 -168 -32 -28 -121 -62 -160 -62 -28 0 2 34 58 68 51
30 98 72 80 72 -5 0 -29 -14 -53 -30 -50 -34 -71 -38 -71 -12 0 13 19 28 61
47 59 29 96 65 66 65 -8 0 -20 -7 -27 -15 -13 -16 -111 -55 -138 -55 -10 0
-22 12 -29 30 l-11 29 53 16 c47 13 122 61 112 71 -2 2 -21 -5 -43 -16 -21
-10 -60 -22 -86 -26 -44 -6 -48 -5 -48 15 0 11 6 21 14 21 25 0 140 57 160 79
26 29 36 26 36 -9z m-295 -20 c4 -6 -15 -9 -52 -8 l-58 1 50 7 c28 4 51 8 52
8 1 1 5 -2 8 -8z m-45 -70 c0 -5 -2 -10 -4 -10 -3 0 -8 5 -11 10 -3 6 -1 10 4
10 6 0 11 -4 11 -10z"/>
<path d="M1143 2241 c-13 -11 -23 -24 -23 -30 0 -6 -4 -11 -9 -11 -5 0 -12
-10 -16 -22 -4 -13 -9 -25 -10 -28 -1 -3 -6 -16 -10 -28 -5 -15 -10 -20 -15
-12 -9 15 -52 -57 -47 -79 2 -11 10 -3 25 24 l21 40 1 -42 c0 -23 5 -45 10
-48 6 -3 10 0 10 7 0 10 2 11 8 0 7 -10 18 -8 53 7 24 12 38 21 32 21 -20 0
-15 18 6 25 23 7 61 84 61 123 0 32 -32 72 -58 72 -9 -1 -27 -9 -39 -19z"/>
<path d="M1020 2141 c-13 -28 -20 -54 -17 -58 8 -8 50 84 45 98 -2 6 -14 -12
-28 -40z"/>
<path d="M1031 1988 c-7 -21 -11 -46 -8 -55 2 -11 8 -1 16 25 15 55 9 80 -8
30z"/>
<path d="M1057 1935 c-18 -60 -24 -130 -7 -88 5 12 12 41 15 65 4 23 12 46 18
50 8 5 9 10 1 18 -7 7 -15 -7 -27 -45z"/>
<path d="M1360 1675 c0 -8 4 -15 10 -15 5 0 7 7 4 15 -4 8 -8 15 -10 15 -2 0
-4 -7 -4 -15z"/>
<path d="M1166 1953 c-6 -14 -5 -15 5 -6 7 7 10 15 7 18 -3 3 -9 -2 -12 -12z"/>
<path d="M1430 1706 c0 -9 5 -16 10 -16 6 0 10 4 10 9 0 6 -4 13 -10 16 -5 3
-10 -1 -10 -9z"/>
<path d="M4305 2260 c-133 -18 -253 -46 -155 -35 25 3 108 12 185 21 169 20
445 14 605 -11 219 -35 375 -106 375 -170 0 -48 -62 -86 -241 -145 -123 -41
-165 -60 -195 -87 -42 -38 -50 -72 -21 -94 14 -11 15 -11 5 1 -45 50 20 105
186 157 265 82 337 147 258 231 -30 32 -147 86 -230 107 -196 47 -530 58 -772
25z"/>
<path d="M6441 2027 c-1 -4 8 -40 19 -79 46 -165 11 -314 -104 -453 -27 -32
-27 -32 -46 43 -7 26 -16 42 -26 42 -12 0 -14 -11 -9 -62 11 -114 15 -129 38
-137 12 -5 29 -6 37 -2 31 12 129 76 130 84 0 10 -46 -2 -92 -23 -21 -10 -38
-16 -38 -13 0 3 27 48 60 101 33 52 67 118 75 146 19 63 19 166 0 238 -14 57
-43 130 -44 115z"/>
<path d="M1970 1438 c0 -4 9 -26 19 -50 29 -66 84 -122 156 -159 36 -19 65
-36 65 -40 0 -3 -17 -15 -37 -27 -21 -12 -31 -22 -22 -22 20 0 126 48 134 61
6 9 -40 95 -57 105 -5 3 -14 2 -20 -4 -7 -7 -4 -20 12 -42 12 -17 20 -34 16
-37 -10 -11 -132 56 -171 94 -21 20 -51 57 -66 82 -16 25 -29 42 -29 39z"/>
</g>
</svg>
